<?xml version="1.0" standalone="no"?>
<!DOCTYPE svg PUBLIC "-//W3C//DTD SVG 20010904//EN"
 "http://www.w3.org/TR/2001/REC-SVG-20010904/DTD/svg10.dtd">
<svg version="1.0" xmlns="http://www.w3.org/2000/svg"
 width="2800.000000pt" height="2800.000000pt" viewBox="0 0 2800.000000 2800.000000"
 preserveAspectRatio="xMidYMid meet">

<g transform="translate(0.000000,2800.000000) scale(0.100000,-0.100000)"
fill="#000000" stroke="none">
<path d="M13840 23849 c-82 -21 -1237 -403 -1365 -451 -102 -39 -116 -51 -31
-27 109 30 237 38 691 44 237 3 453 7 480 10 28 2 140 9 250 15 214 12 543 39
850 71 104 10 239 19 300 20 l110 1 -400 134 c-552 186 -616 204 -723 203 -53
0 -117 -8 -162 -20z"/>
<path d="M14620 23480 c-528 -56 -927 -79 -1485 -86 -453 -5 -592 -13 -690
-39 -79 -21 -152 -63 -190 -110 -27 -33 -30 -44 -30 -108 1 -116 48 -191 259
-407 62 -63 166 -166 232 -229 65 -63 123 -121 128 -130 10 -20 -179 162 -371
357 -201 203 -263 302 -263 425 -1 59 -1 61 -15 36 -28 -51 -36 -187 -26 -421
6 -123 15 -374 22 -558 6 -184 14 -340 18 -347 4 -8 65 10 196 59 377 138 436
158 478 158 128 -1 282 -153 348 -344 16 -45 24 -82 19 -84 -6 -2 -7 -8 -4
-13 7 -11 -37 -98 -75 -149 -22 -30 -116 -141 -161 -190 -14 -16 -39 -45 -68
-82 -16 -20 -5 -48 19 -48 10 0 19 -4 19 -10 0 -5 -7 -10 -15 -10 -8 0 -15 -4
-15 -9 0 -16 -114 -69 -330 -154 -118 -46 -243 -94 -276 -107 l-62 -22 62 -54
c33 -31 66 -59 73 -64 20 -16 145 -77 213 -105 36 -14 83 -34 105 -45 45 -21
183 -81 325 -142 52 -23 217 -95 365 -161 149 -66 285 -126 304 -134 55 -23
27 -27 -34 -4 -31 12 -58 21 -60 21 -3 0 -2 -19 0 -42 3 -24 8 -113 11 -198 4
-85 8 -184 10 -220 3 -59 8 -181 18 -425 2 -56 8 -91 15 -93 8 -3 8 -8 3 -15
-14 -18 -20 -86 -7 -91 6 -3 6 -7 -2 -13 -11 -8 -10 -98 1 -148 2 -11 5 -26 5
-33 1 -8 6 -10 14 -6 9 6 9 4 1 -7 -17 -21 -10 -65 10 -61 9 2 16 -2 16 -8 0
-5 -5 -10 -11 -10 -25 0 -128 -53 -122 -63 3 -6 1 -7 -6 -3 -7 4 -29 0 -49 -9
-148 -70 -181 -88 -175 -98 3 -6 1 -7 -5 -3 -16 10 -254 -112 -246 -126 4 -6
1 -9 -7 -5 -13 4 -182 -79 -364 -181 -44 -24 -109 -60 -145 -79 -36 -20 -85
-47 -110 -61 -25 -13 -144 -80 -265 -147 -121 -67 -348 -194 -505 -282 -157
-88 -306 -172 -332 -186 -115 -64 -221 -125 -333 -190 -650 -380 -781 -482
-894 -698 -57 -107 -90 -288 -111 -594 -5 -88 -12 -173 -15 -190 -2 -16 -7
-111 -11 -210 -3 -99 -9 -184 -12 -189 -2 -4 2 -12 9 -17 10 -6 11 -9 2 -9 -9
0 -13 -15 -12 -47 l2 -48 7 40 c4 23 8 -52 10 -180 3 -265 10 -217 35 260 44
840 67 956 244 1247 89 148 141 204 272 294 107 75 372 238 539 333 80 46 161
93 180 105 19 13 67 40 105 61 39 21 72 41 75 45 4 6 119 70 191 107 15 7 32
20 39 28 6 8 28 19 48 26 20 7 44 19 52 28 8 9 34 23 58 31 23 7 42 19 42 27
0 8 4 12 9 9 5 -4 11 -3 13 1 4 11 81 47 93 44 6 -1 7 1 3 5 -10 9 77 64 103
64 21 0 79 26 79 36 0 3 -4 2 -10 -1 -5 -3 -10 -1 -10 4 0 6 7 11 15 11 8 0
15 5 15 11 0 6 9 9 20 6 13 -3 18 -1 13 6 -4 6 0 8 10 4 12 -4 17 -1 17 9 0
10 6 14 15 10 8 -3 14 0 12 6 -1 7 6 14 17 16 13 3 16 0 11 -10 -5 -7 -4 -10
1 -5 5 5 9 14 9 20 0 7 9 11 19 9 12 -2 16 1 10 9 -5 9 -2 10 9 6 9 -3 18 1
21 10 4 8 12 13 19 10 8 -3 20 -1 28 5 11 8 10 9 -3 4 -28 -9 -21 2 11 19 17
8 36 13 43 12 7 -2 10 -2 5 1 -21 11 162 115 189 106 15 -5 16 -4 5 4 -12 8
-8 13 20 25 19 7 36 10 39 6 3 -5 53 18 110 49 287 158 389 212 564 297 312
153 424 183 634 172 128 -7 196 -21 317 -68 103 -40 368 -170 563 -276 84 -46
155 -83 157 -83 2 0 28 -14 57 -31 29 -17 94 -53 143 -79 150 -80 349 -191
359 -201 6 -5 18 -9 28 -9 10 0 18 -4 18 -8 0 -5 37 -28 83 -51 45 -24 93 -51
107 -61 14 -9 68 -41 120 -70 52 -29 127 -71 165 -93 39 -22 90 -51 115 -64
25 -13 66 -37 92 -53 26 -16 71 -42 100 -59 29 -16 82 -46 118 -66 36 -21 81
-46 100 -57 19 -11 46 -28 60 -38 14 -9 32 -20 40 -24 8 -3 36 -19 62 -34 26
-15 85 -49 132 -76 48 -27 95 -58 106 -68 10 -10 24 -18 30 -18 5 0 32 -15 58
-33 26 -18 83 -55 127 -82 109 -67 264 -185 297 -226 73 -90 105 -147 112
-200 2 -19 11 -54 20 -78 9 -24 14 -46 12 -48 -2 -3 -17 2 -33 9 -29 15 -67
13 -58 -3 4 -5 -1 -9 -10 -9 -9 0 -13 -5 -10 -11 4 -6 -3 -5 -14 3 -18 11 -23
11 -31 -2 -6 -9 -10 -10 -10 -3 0 6 7 19 16 27 9 10 11 16 4 16 -32 0 -62 -76
-34 -87 7 -2 10 -11 7 -18 -3 -10 1 -13 16 -10 12 2 19 0 16 -6 -4 -5 -10 -7
-15 -4 -5 3 -11 1 -15 -5 -4 -6 -11 -8 -16 -4 -5 3 -7 9 -4 14 3 5 0 12 -7 16
-7 4 -10 4 -6 -1 4 -4 2 -15 -5 -23 -7 -10 -8 -13 -1 -9 7 4 17 0 24 -8 15
-18 45 -21 34 -3 -4 7 -3 8 4 4 18 -11 15 -15 -20 -30 -25 -11 -28 -15 -13
-16 19 -1 18 -2 -2 -10 -13 -5 -23 -15 -23 -22 0 -10 2 -10 8 -1 4 7 13 9 21
4 10 -7 9 -9 -3 -14 -9 -4 -16 -11 -16 -17 0 -6 5 -8 10 -5 6 3 10 2 10 -4 0
-5 -4 -12 -10 -16 -5 -3 -7 -12 -3 -20 4 -11 1 -13 -11 -9 -9 3 -16 1 -16 -5
0 -6 6 -11 14 -11 20 0 25 -22 8 -39 -12 -13 -12 -16 4 -28 17 -12 16 -13 -7
-14 -13 0 -18 -3 -11 -6 6 -2 12 -9 12 -14 0 -6 -4 -8 -9 -4 -6 3 -6 -6 -1
-24 6 -21 5 -31 -3 -35 -7 -2 -4 -5 6 -5 11 -1 15 -6 11 -12 -11 -19 -13 -93
-3 -105 7 -8 6 -15 -1 -19 -7 -4 -8 -11 -1 -18 12 -15 12 -85 0 -93 -5 -3 -2
-18 6 -34 12 -24 13 -28 2 -24 -11 4 -13 -8 -10 -63 8 -131 8 -248 -1 -260 -5
-8 -4 -13 3 -13 8 0 9 -6 4 -17 -5 -10 -7 -56 -6 -103 2 -47 2 -132 1 -190 -2
-123 -2 -184 1 -225 7 -147 -11 -1594 -24 -1871 -4 -79 -35 -250 -57 -309 -29
-79 -86 -186 -129 -243 -26 -35 -49 -67 -51 -71 -2 -4 -34 -33 -73 -66 -38
-32 -72 -61 -75 -65 -3 -4 -50 -36 -105 -73 -55 -36 -113 -76 -129 -89 -16
-12 -46 -31 -65 -41 -20 -11 -81 -49 -136 -85 -55 -37 -116 -74 -135 -84 -37
-20 -51 -28 -118 -71 -42 -27 -76 -47 -154 -91 -78 -44 -264 -156 -275 -166
-7 -5 -16 -10 -21 -10 -4 0 -17 -8 -28 -18 -11 -11 -33 -24 -49 -29 -17 -6
-29 -16 -27 -22 1 -6 -3 -11 -10 -11 -17 0 -147 -68 -192 -101 -22 -16 -46
-29 -53 -29 -7 0 -13 -4 -13 -9 0 -5 -15 -15 -32 -22 -18 -7 -55 -28 -83 -46
-27 -18 -59 -36 -70 -39 -11 -4 -27 -12 -35 -19 -23 -20 -278 -165 -290 -165
-5 0 -10 -4 -10 -10 0 -5 -19 -18 -42 -29 -24 -11 -77 -41 -118 -66 -41 -25
-111 -63 -155 -85 -43 -23 -84 -45 -90 -49 -17 -14 -149 -81 -159 -81 -5 0
-19 -8 -30 -18 -32 -28 -270 -119 -316 -121 -8 0 -60 -5 -115 -11 -132 -13
-290 6 -365 45 -15 8 -30 11 -34 8 -3 -3 -14 1 -23 10 -18 16 -73 41 -84 39
-4 -1 -15 8 -24 18 -10 11 -28 20 -40 20 -12 0 -30 9 -40 20 -10 11 -26 20
-36 20 -23 0 -89 31 -89 42 0 5 -11 6 -25 4 -15 -3 -23 -1 -20 5 4 5 12 6 18
3 7 -4 9 -3 4 1 -4 5 -16 10 -26 12 -40 6 -72 23 -65 35 5 7 2 9 -9 5 -9 -3
-17 -1 -19 4 -2 5 -13 11 -26 12 -12 0 -22 4 -22 8 0 4 -17 13 -37 20 -21 6
-51 19 -68 27 -16 9 -33 15 -37 14 -5 -1 -13 7 -20 17 -6 11 -18 17 -26 13
-10 -3 -13 -1 -8 6 4 7 4 12 -1 13 -50 4 -113 27 -113 40 0 5 -9 9 -21 9 -22
0 -81 29 -87 43 -2 4 -9 7 -15 7 -7 0 -23 6 -38 13 -14 8 -33 13 -43 11 -10
-1 -15 0 -12 3 9 9 -72 55 -84 48 -6 -3 -13 1 -16 9 -3 9 -11 16 -16 16 -6 0
-7 -7 -4 -16 3 -8 2 -12 -4 -9 -6 3 -10 13 -10 21 0 10 -8 14 -22 12 -14 -2
-22 2 -21 9 3 14 -32 27 -48 17 -8 -5 -9 -3 -5 5 5 8 3 12 -5 10 -30 -4 -60 1
-55 10 8 12 -70 41 -83 30 -6 -5 -9 -6 -6 -3 6 9 -14 34 -26 34 -5 0 -9 -6 -9
-14 0 -11 -5 -12 -25 -3 -14 7 -25 15 -25 19 0 4 -10 12 -21 19 -19 10 -21 9
-17 -8 4 -13 0 -19 -13 -19 -10 0 -16 3 -13 7 5 9 -25 21 -36 14 -5 -3 -12 0
-16 6 -4 7 -3 9 2 6 6 -3 15 -2 22 2 8 5 6 12 -8 24 -11 9 -20 16 -21 14 0 -1
-2 -10 -4 -20 -5 -25 -17 -35 -22 -19 -4 10 -9 8 -19 -5 -8 -10 -14 -13 -13
-8 4 27 -2 46 -12 40 -6 -4 -8 -14 -4 -23 5 -13 2 -12 -15 3 -11 10 -20 15
-20 11 0 -3 -14 1 -30 9 -17 9 -28 20 -25 25 4 6 2 10 -4 10 -5 0 -18 3 -28 6
-15 5 -15 4 -3 -5 12 -9 10 -11 -10 -11 -15 0 -32 -6 -39 -12 -11 -11 -11 -9
-2 9 7 14 8 24 1 28 -5 3 -10 1 -10 -5 0 -7 -6 -8 -19 -1 -10 6 -31 9 -47 8
-24 -2 -30 2 -35 28 -4 17 -7 22 -8 13 -1 -11 -6 -15 -16 -12 -8 4 -12 10 -9
15 5 8 -18 13 -53 12 -7 0 -15 8 -19 19 -4 13 -9 16 -13 10 -8 -13 -81 5 -81
20 0 4 -5 8 -12 8 -19 0 -148 62 -148 71 0 5 -8 9 -19 9 -10 0 -24 7 -31 15
-7 8 -19 15 -27 15 -8 0 -11 5 -8 10 4 6 3 9 -2 8 -10 -3 -103 32 -123 46 -37
27 -150 86 -150 78 0 -3 -6 2 -13 13 -9 11 -19 15 -27 10 -9 -5 -11 -4 -6 3 4
7 -3 14 -19 18 -14 3 -25 9 -25 13 0 4 -19 15 -42 26 -24 10 -59 30 -78 44
-19 15 -53 36 -75 46 -22 11 -41 23 -43 28 -2 4 -8 7 -12 7 -5 0 -48 25 -95
55 -46 30 -88 55 -91 55 -6 0 -78 55 -102 77 -7 7 -17 13 -21 13 -14 0 -119
107 -147 151 -16 24 -31 46 -34 49 -18 16 -69 113 -84 160 -28 85 -56 238 -56
310 0 36 -4 60 -8 53 -11 -17 5 -253 24 -353 32 -170 114 -339 226 -467 29
-33 70 -81 92 -106 35 -43 188 -164 316 -251 64 -44 75 -54 40 -36 -92 48
-356 237 -442 318 -91 86 -212 276 -259 407 -21 59 -24 41 -5 -30 16 -59 85
-200 127 -258 67 -92 292 -277 485 -397 39 -25 117 -74 173 -110 219 -140 267
-170 281 -177 8 -4 43 -24 78 -45 34 -21 65 -38 68 -38 3 0 26 -13 51 -30 24
-16 46 -30 48 -30 2 0 40 -23 86 -51 45 -28 103 -62 128 -76 43 -24 203 -118
434 -255 54 -32 100 -58 102 -58 4 0 47 -25 155 -90 8 -4 76 -43 150 -86 74
-43 171 -99 215 -124 70 -41 117 -68 282 -161 63 -36 108 -61 148 -82 22 -12
42 -25 45 -28 3 -3 23 -14 45 -25 22 -11 72 -38 110 -59 215 -118 426 -214
520 -236 28 -6 59 -15 70 -19 37 -13 282 -18 340 -7 65 13 89 18 95 22 4 2 22
7 41 10 19 3 43 9 54 14 11 5 54 23 95 41 147 63 311 147 472 241 36 21 68 39
71 39 2 0 84 45 181 100 97 55 191 108 209 117 17 10 37 23 44 30 7 6 23 15
35 19 12 3 51 25 87 47 36 22 81 48 99 59 17 10 47 26 65 36 104 59 314 182
387 226 47 29 107 63 133 76 26 14 56 32 65 40 9 8 31 22 47 30 17 8 53 28 80
44 28 16 64 37 80 46 47 26 243 143 423 252 89 54 165 98 167 98 3 0 28 16 55
35 27 19 52 35 54 35 3 0 25 13 49 30 25 16 48 30 52 30 7 0 303 199 349 235
l28 22 127 -75 c69 -41 146 -86 171 -100 25 -13 52 -30 60 -37 8 -6 44 -28 80
-49 36 -20 171 -100 300 -176 129 -76 236 -137 237 -136 2 2 10 54 18 117 8
63 19 141 25 174 12 70 12 81 4 72 -4 -3 -16 -1 -28 5 -11 7 -23 13 -26 14
-25 6 -43 21 -51 43 -8 20 -12 22 -19 11 -8 -13 -10 -12 -10 3 0 14 -13 23
-23 15 -2 -2 -16 5 -31 16 -18 11 -25 13 -21 5 5 -8 -1 -6 -13 5 -12 10 -19
22 -17 26 3 5 -7 7 -21 5 -15 -1 -28 3 -31 11 -3 9 -15 12 -32 9 -22 -4 -29 1
-40 27 -23 50 0 282 41 417 22 74 28 106 19 109 -6 2 -18 10 -25 18 -8 8 -17
14 -19 14 -15 0 -89 -295 -127 -500 -13 -69 -27 -128 -31 -133 -5 -4 -7 -4 -4
-1 2 4 -7 16 -21 26 -14 11 -23 23 -20 26 3 3 -2 11 -11 17 -18 13 -46 -2 -35
-19 3 -5 0 -6 -6 -3 -5 4 -8 17 -4 29 3 14 1 19 -6 14 -6 -4 -23 0 -36 9 -14
9 -29 14 -35 11 -5 -3 -12 1 -15 10 -3 8 -10 12 -16 9 -5 -3 -10 1 -10 10 0
11 -5 15 -14 12 -9 -4 -17 2 -21 14 -4 10 -15 19 -26 19 -13 0 -18 -4 -13 -12
4 -7 -2 -4 -14 6 -12 11 -22 25 -22 32 0 8 -6 11 -17 7 -14 -5 -13 0 7 33 13
21 29 46 35 54 65 80 151 306 160 418 l5 67 -14 -70 c-43 -211 -176 -436 -345
-582 -74 -64 -342 -253 -360 -253 -4 0 -25 -13 -47 -30 -21 -16 -43 -30 -47
-30 -5 0 -32 -15 -60 -33 -70 -45 -197 -117 -207 -117 -5 0 -10 -4 -12 -8 -1
-4 -25 -20 -53 -36 -62 -34 -23 0 45 41 181 107 550 352 625 416 214 183 356
408 400 633 36 183 44 704 25 1629 -24 1245 -19 1427 16 575 3 -80 10 -219 14
-310 8 -150 8 -143 4 75 -3 132 -7 281 -9 330 -3 50 -10 209 -15 355 -28 714
-64 1109 -116 1282 -13 45 -24 90 -24 101 0 65 -112 213 -250 328 -86 72 -365
251 -570 367 -19 10 -93 53 -165 94 -106 62 -376 214 -590 333 -237 133 -694
386 -745 413 -36 19 -99 54 -140 77 -77 44 -356 195 -515 280 -49 26 -126 67
-170 91 -120 64 -331 158 -424 190 -46 15 -77 30 -70 34 10 3 14 25 15 65 1
70 12 223 20 280 3 22 6 55 6 73 0 17 3 32 7 32 5 0 12 158 15 362 1 32 4 58
7 58 3 0 6 7 6 15 0 8 -4 15 -8 15 -5 0 -4 12 2 26 5 15 7 36 3 47 -4 12 -1
23 7 28 9 6 10 9 2 9 -6 0 -10 8 -8 18 2 9 4 17 5 17 1 0 2 27 4 60 1 33 6 71
10 84 6 17 5 22 -4 16 -9 -5 -10 -1 -5 16 4 13 9 41 10 63 2 28 8 42 21 47 32
13 40 10 41 -13 2 -56 8 -76 20 -71 7 3 13 29 15 65 l3 60 165 73 c91 39 278
120 415 180 416 180 554 242 603 274 52 33 129 108 120 116 -3 3 -68 31 -144
62 -76 31 -154 66 -172 78 l-34 23 39 0 c21 0 72 -13 113 -28 41 -16 109 -41
150 -55 41 -15 104 -38 140 -52 36 -13 90 -33 119 -44 30 -10 65 -26 78 -34
12 -8 29 -15 37 -15 7 0 58 -18 112 -39 187 -74 349 -139 449 -181 55 -23 120
-49 145 -57 25 -8 48 -20 51 -25 3 -5 15 -11 25 -13 10 -2 20 -4 22 -5 1 -2 6
-3 11 -4 5 0 13 -4 17 -8 4 -5 14 -8 22 -8 8 0 36 -11 62 -24 26 -13 63 -27
81 -31 19 -4 37 -12 40 -17 3 -5 12 -11 20 -12 33 -7 79 -29 79 -37 0 -5 9 -9
19 -9 11 0 22 -4 25 -9 3 -4 38 -18 78 -31 40 -12 80 -28 88 -35 8 -7 26 -16
40 -19 14 -4 34 -11 45 -16 117 -51 188 -80 198 -80 17 0 67 -23 67 -31 0 -4
20 -13 45 -20 25 -7 45 -17 45 -21 0 -4 9 -8 19 -8 10 0 45 -13 76 -30 31 -16
62 -30 69 -30 7 0 36 -11 64 -25 29 -14 55 -25 59 -25 18 0 259 -103 265 -114
4 -6 8 -7 8 -2 0 5 8 2 19 -8 10 -9 27 -18 37 -21 29 -6 87 -27 104 -36 8 -5
22 -12 30 -15 8 -3 29 -12 45 -20 27 -12 70 -29 209 -80 21 -8 52 -22 69 -30
17 -9 53 -24 81 -34 60 -22 85 -32 363 -143 l212 -84 10 51 c12 59 29 228 27
269 -1 23 -5 27 -31 27 -16 0 -42 6 -57 14 -15 8 -41 17 -59 21 -17 4 -46 15
-63 25 -17 10 -44 21 -61 23 -65 11 -181 40 -191 49 -7 5 -20 10 -30 12 -54
11 -150 39 -160 47 -14 11 -194 59 -194 51 0 -3 -5 -1 -12 6 -7 7 -26 12 -44
12 -34 0 -134 37 -146 55 -4 5 -8 7 -8 3 0 -4 -12 -3 -27 3 -16 6 -37 13 -48
15 -11 2 -29 8 -40 12 -69 31 -94 40 -123 47 -18 4 -45 13 -60 21 -15 8 -35
14 -45 14 -9 0 -27 5 -40 12 -41 21 -52 25 -112 43 -33 9 -66 22 -72 27 -7 6
-13 7 -13 3 0 -4 -6 -3 -12 3 -13 10 -77 27 -90 24 -5 -1 -8 2 -8 7 0 5 -15
12 -32 15 -18 3 -46 13 -62 21 -15 8 -32 12 -37 9 -5 -3 -9 -1 -9 4 0 5 -19
15 -42 22 -24 7 -47 17 -52 22 -6 4 -22 8 -37 8 -15 0 -30 4 -34 9 -3 5 -20
13 -38 16 -33 8 -88 33 -97 45 -3 3 -43 19 -90 34 -47 16 -103 36 -125 45 -21
9 -43 17 -47 17 -4 1 -10 3 -13 4 -3 1 -8 3 -12 4 -5 1 -28 12 -53 25 -25 12
-72 31 -105 41 -33 9 -78 26 -100 37 -22 12 -55 24 -72 28 -18 3 -33 11 -33
16 0 5 -6 9 -14 9 -24 0 -116 47 -108 55 4 5 2 6 -3 2 -6 -3 -24 0 -40 8 -40
17 -67 27 -85 31 -24 5 -93 37 -122 56 -14 10 -33 18 -42 18 -9 0 -16 6 -16
14 0 12 -17 24 -40 31 -3 0 -24 10 -48 22 -23 12 -39 16 -35 10 4 -7 -1 -6
-10 2 -9 7 -17 10 -17 5 0 -4 -5 -3 -12 4 -14 14 -32 16 -24 3 4 -5 -3 -7 -15
-4 -15 4 -17 8 -8 14 8 4 10 11 6 15 -14 15 -82 34 -100 28 -10 -3 -19 1 -23
9 -3 8 -13 13 -24 10 -10 -3 -21 0 -24 6 -4 6 -17 11 -30 11 -12 0 -27 5 -33
11 -6 6 -17 12 -24 13 -8 2 -27 8 -42 14 -16 7 -33 12 -38 12 -6 0 -7 4 -4 10
3 5 0 7 -8 4 -8 -3 -28 8 -44 23 -17 16 -35 27 -41 25 -5 -1 -17 4 -26 13 -9
9 -16 13 -16 9 0 -3 -6 -1 -13 5 -8 6 -17 8 -20 4 -4 -3 -7 -1 -7 5 0 7 -9 12
-20 12 -11 0 -20 5 -20 11 0 5 -4 7 -10 4 -5 -3 -10 -1 -10 5 0 6 -4 8 -10 5
-5 -3 -10 -1 -10 5 0 7 -6 10 -14 7 -8 -3 -20 1 -26 8 -7 8 -16 13 -20 10 -4
-3 -19 4 -33 15 -14 11 -28 20 -32 20 -3 0 -13 7 -21 15 -9 8 -23 15 -33 15
-10 0 -30 12 -45 26 -14 15 -26 23 -26 19 0 -4 -9 3 -21 16 -11 13 -17 17 -13
10 5 -10 -2 -9 -22 5 -48 32 -67 43 -99 58 -62 29 -95 68 -105 125 -20 110 -4
233 41 311 l21 35 -22 -21 c-11 -11 -32 -53 -46 -94 -23 -65 -26 -88 -24 -189
3 -140 4 -136 -15 -119 -34 31 -120 88 -132 88 -10 0 -64 66 -87 106 -18 29
-18 34 -2 81 41 123 143 253 236 301 93 48 134 45 316 -24 305 -113 506 -185
509 -182 9 9 36 908 33 1069 -6 225 -17 269 -93 344 -27 28 -77 64 -110 82
-76 40 -330 127 -429 147 -108 23 -285 18 -596 -14z m1130 -755 c-19 -19 -84
-74 -145 -121 -60 -48 -102 -78 -92 -68 20 21 260 222 266 223 3 1 -10 -15
-29 -34z m-1606 -17 c22 -23 22 -24 -26 -58 -64 -47 -124 -35 -116 22 2 16 15
27 48 39 52 20 71 19 94 -3z m1346 -192 c0 -5 -347 -298 -373 -315 -29 -18 0
9 154 139 223 189 219 185 219 176z m-2535 -246 c38 -38 67 -70 64 -70 -2 0
-36 32 -74 70 -38 39 -67 70 -64 70 2 0 36 -31 74 -70z m2115 -114 c0 -2 -8
-10 -17 -17 -16 -13 -17 -12 -4 4 13 16 21 21 21 13z m1047 -1202 c-3 -3 -12
-4 -19 -1 -8 3 -5 6 6 6 11 1 17 -2 13 -5z m-2777 -2348 c0 -2 -7 -7 -16 -10
-8 -3 -12 -2 -9 4 6 10 25 14 25 6z m-176 -91 c-10 -8 -23 -14 -29 -14 -5 0
-1 6 9 14 11 8 24 15 30 15 5 0 1 -7 -10 -15z m-83 -43 c-29 -21 -225 -128
-263 -145 -16 -6 -28 -15 -28 -19 0 -4 -8 -8 -17 -8 -26 0 -8 12 102 70 55 29
127 68 160 86 66 36 83 42 46 16z m-901 -506 c0 -2 -7 -7 -16 -10 -8 -3 -12
-2 -9 4 6 10 25 14 25 6z m5450 -1640 c0 -2 -7 -7 -16 -10 -8 -3 -12 -2 -9 4
6 10 25 14 25 6z m-5290 -5046 c0 -5 -5 -10 -11 -10 -5 0 -7 5 -4 10 3 6 8 10
11 10 2 0 4 -4 4 -10z m3475 -409 c-27 -26 -384 -231 -402 -231 -4 0 16 16 46
35 29 19 54 35 57 35 2 0 36 20 76 44 78 46 220 125 228 126 2 0 0 -4 -5 -9z"/>
<path d="M6265 21321 c-73 -16 -1799 -585 -2025 -668 -214 -78 -331 -158 -366
-250 -33 -85 -22 -237 31 -468 13 -55 30 -132 39 -171 16 -80 46 -133 155
-279 118 -157 628 -793 923 -1149 416 -503 523 -634 486 -596 -49 51 -196 223
-248 290 -19 24 -105 128 -190 231 -188 226 -292 353 -430 524 -58 71 -164
202 -236 290 -71 88 -189 236 -261 328 -73 92 -136 167 -140 167 -7 -1 -6 -49
2 -95 6 -32 52 -258 80 -390 14 -66 46 -221 71 -345 25 -124 61 -295 81 -380
19 -85 39 -177 44 -205 21 -107 27 -133 52 -206 33 -98 58 -150 99 -204 32
-42 203 -184 237 -197 10 -3 37 -20 62 -37 61 -44 97 -68 224 -149 61 -39 119
-78 130 -87 41 -32 167 -115 175 -115 5 0 10 -3 12 -7 5 -11 97 -73 108 -73 6
0 10 -4 10 -10 0 -5 6 -10 14 -10 8 0 16 -4 18 -8 2 -5 44 -35 93 -68 50 -32
125 -87 168 -121 98 -80 246 -169 311 -188 27 -8 75 -15 105 -15 62 0 190 28
267 59 l50 19 91 -97 c132 -141 279 -231 375 -231 47 1 108 31 145 73 59 67
95 214 91 375 l-1 77 -7 -60 c-6 -51 -7 -45 -7 43 0 58 5 108 11 116 6 7 106
54 221 103 538 232 759 329 865 376 193 87 288 158 338 252 27 50 27 52 26
250 -1 179 -7 254 -62 715 -34 283 -62 536 -64 563 l-3 47 140 56 c77 30 154
62 172 70 17 8 34 14 38 14 4 0 21 6 38 14 34 15 512 203 712 281 66 26 203
80 305 120 102 41 232 92 290 113 88 34 367 143 435 171 11 5 38 16 60 24 114
45 395 155 590 232 307 121 411 162 640 250 110 43 235 91 278 108 42 16 76
32 74 34 -2 2 -64 -20 -138 -47 -74 -28 -226 -84 -339 -125 -223 -80 -284
-102 -315 -116 -42 -18 -241 -90 -260 -94 -11 -2 -21 -4 -22 -6 -2 -1 -7 -2
-12 -3 -5 0 -12 -4 -16 -8 -4 -4 -13 -4 -21 -1 -8 3 -14 0 -14 -6 0 -6 -7 -8
-17 -4 -12 5 -14 3 -8 -7 5 -8 4 -11 -3 -6 -14 9 -63 -4 -57 -14 3 -5 -5 -6
-17 -2 -16 4 -19 2 -13 -8 5 -9 4 -11 -4 -6 -15 10 -64 -2 -57 -13 3 -4 -7 -8
-22 -8 -15 0 -97 -18 -182 -41 -200 -53 -285 -65 -407 -60 -83 3 -108 8 -156
31 -82 41 -136 112 -157 210 -9 41 -9 40 -6 -14 6 -87 65 -172 149 -217 50
-26 58 -27 192 -26 116 0 160 5 254 27 63 15 116 25 119 22 3 -3 3 -5 0 -5 -2
0 -65 -15 -139 -34 -74 -18 -179 -39 -235 -46 -245 -31 -385 51 -431 253 -12
52 -18 66 -23 52 -9 -24 -3 -96 12 -145 17 -55 46 -108 83 -148 22 -24 31 -43
26 -51 -5 -7 -12 -12 -17 -11 -8 1 -71 -20 -121 -41 -13 -5 -33 -13 -45 -18
-13 -4 -41 -16 -63 -26 -22 -10 -53 -21 -70 -26 -16 -4 -59 -20 -95 -35 -36
-15 -85 -33 -110 -40 -25 -7 -72 -24 -105 -37 -95 -38 -99 -40 -125 -44 -13
-2 -29 -8 -35 -12 -5 -5 -41 -18 -80 -31 -38 -12 -90 -31 -115 -42 -25 -11
-56 -24 -70 -29 -14 -4 -50 -17 -80 -29 -30 -12 -64 -23 -75 -24 -18 -3 -43
-11 -95 -33 -8 -3 -19 -7 -25 -8 -5 -2 -36 -13 -69 -25 -32 -12 -83 -28 -112
-35 l-53 -12 -11 51 c-5 28 -21 137 -35 241 -60 452 -108 566 -295 687 -68 45
-288 156 -1065 538 -344 169 -363 178 -450 201 -86 23 -185 23 -290 0z m1672
-893 c6 16 23 15 23 -2 0 -13 -28 -27 -60 -30 -8 0 -23 -7 -32 -15 -9 -8 -25
-16 -34 -17 -9 -1 -38 -12 -65 -23 -26 -12 -57 -21 -68 -21 -12 0 -21 -4 -21
-9 0 -5 -10 -11 -22 -14 -35 -8 -221 -75 -240 -87 -10 -5 -28 -10 -42 -10 -13
0 -29 -6 -35 -14 -10 -12 -135 -43 -153 -38 -5 1 -8 -4 -8 -11 0 -13 -96 -51
-136 -53 -12 0 -27 -5 -35 -10 -8 -5 -20 -9 -28 -11 -8 -1 -17 -5 -20 -10 -10
-13 -83 -44 -89 -38 -13 13 -9 37 6 42 9 3 36 14 59 25 23 11 48 16 54 12 8
-5 9 -3 4 6 -6 10 -2 12 18 8 16 -3 28 0 31 8 3 8 15 14 26 14 11 0 20 3 20 8
0 4 10 13 21 21 19 11 21 11 16 -3 -5 -13 -2 -13 18 -4 14 6 25 15 25 21 0 5
6 7 14 4 8 -3 21 2 30 11 8 10 27 19 41 20 14 1 36 7 48 14 12 7 25 11 30 10
4 -1 7 3 7 8 0 6 11 10 25 10 14 0 44 9 65 20 22 11 40 17 40 13 0 -5 4 -3 8
2 11 15 53 33 93 40 21 3 48 14 61 25 14 10 47 24 74 31 27 6 54 15 59 19 30
21 147 39 158 25 6 -7 10 -6 14 3z m2828 -118 c-11 -5 -27 -9 -35 -9 -9 0 -8
4 5 9 11 5 27 9 35 9 9 0 8 -4 -5 -9z m-3925 -291 c0 -6 -9 -13 -20 -16 -11
-3 -20 -9 -20 -12 0 -4 -13 -6 -30 -3 -32 5 -39 16 -15 26 8 3 15 1 15 -4 0
-16 27 -11 34 5 6 17 36 21 36 4z m-99 -39 c24 0 -4 -18 -38 -25 -21 -4 -40
-11 -43 -16 -4 -5 -19 -5 -37 0 -25 7 -31 6 -26 -4 3 -9 -9 -20 -32 -29 -51
-22 -58 -20 -39 8 17 27 64 47 119 50 19 1 40 7 47 14 7 7 19 10 26 7 8 -3 18
-5 23 -5z m-258 -96 c-4 -11 -62 -44 -77 -44 -3 0 -6 7 -6 16 0 14 -2 14 -22
0 -12 -9 -29 -16 -38 -16 -17 0 29 26 80 45 43 16 69 15 63 -1z m-194 -70
c-11 -13 -49 -20 -49 -9 0 15 26 31 42 27 14 -3 16 -7 7 -18z m-205 -78 c-23
-13 -85 -26 -79 -16 3 4 18 10 34 13 16 4 35 13 43 21 8 8 15 10 17 4 2 -6 -5
-16 -15 -22z m-494 -2081 c13 -14 21 -25 18 -25 -2 0 -15 11 -28 25 -13 14
-21 25 -18 25 2 0 15 -11 28 -25z m1495 -959 c-41 -171 -138 -250 -266 -216
-99 27 -201 95 -309 204 -81 83 -69 86 18 5 78 -73 130 -112 197 -147 41 -21
64 -26 127 -26 71 -1 79 1 115 30 53 43 90 107 111 192 10 41 18 63 20 50 2
-12 -4 -53 -13 -92z"/>
<path d="M21475 21333 c-63 -15 -149 -51 -308 -128 -174 -83 -178 -86 -158
-103 11 -9 36 -53 54 -97 64 -150 137 -254 269 -381 203 -196 383 -320 857
-589 319 -180 372 -224 435 -355 30 -63 31 -68 30 -200 -1 -74 -6 -148 -13
-165 -10 -27 -10 -25 -5 19 14 122 -4 271 -39 316 -13 17 -92 66 -83 51 3 -4
-3 -16 -14 -26 -11 -10 -20 -24 -20 -31 0 -8 -18 -26 -40 -40 -32 -21 -48 -26
-77 -21 -36 5 -88 25 -123 47 -33 20 -313 150 -324 150 -7 0 -16 3 -20 8 -4 4
-11 7 -14 8 -7 1 -21 6 -97 39 -22 9 -71 28 -110 42 -38 14 -75 29 -81 34 -6
5 -25 11 -42 13 -17 2 -44 12 -59 22 -15 10 -30 19 -33 19 -34 7 -90 28 -95
35 -3 6 -17 10 -29 10 -13 0 -29 6 -36 14 -6 8 -17 13 -24 10 -7 -3 -19 2 -26
11 -7 8 -23 15 -36 15 -13 0 -24 4 -24 8 0 5 -6 9 -13 9 -24 0 -157 56 -157
66 0 6 -3 7 -7 4 -3 -4 -12 -2 -19 3 -6 6 -22 13 -35 15 -12 3 -25 8 -28 13
-3 4 -15 9 -27 9 -25 2 -117 43 -122 55 -2 4 -14 8 -27 8 -13 0 -27 5 -31 11
-3 6 -15 9 -25 6 -11 -3 -26 1 -33 9 -18 17 -29 18 -21 2 4 -7 0 -5 -8 4 -8
10 -17 14 -22 10 -4 -4 -5 4 -1 18 3 14 3 19 0 13 -12 -27 -69 2 -58 30 6 16
28 17 41 2 4 -4 2 -5 -6 0 -10 6 -12 4 -7 -4 6 -9 11 -9 21 -1 9 7 16 6 24 -4
12 -14 67 -32 85 -27 5 1 16 -5 26 -14 9 -8 20 -12 23 -9 4 4 13 1 22 -6 8 -7
15 -10 15 -6 0 4 13 0 29 -8 16 -9 31 -13 33 -11 5 6 98 -24 113 -35 17 -13
173 -58 179 -52 3 3 6 0 6 -6 0 -7 14 -12 30 -12 17 0 30 -4 30 -10 0 -5 7 -7
15 -4 8 4 15 1 15 -6 0 -6 4 -9 9 -6 12 8 131 -34 131 -46 0 -5 6 -8 13 -5 6
2 42 -4 79 -14 37 -11 77 -19 88 -19 11 0 20 -5 20 -11 0 -5 4 -8 8 -5 4 2 26
-4 49 -14 23 -10 44 -16 47 -12 3 3 6 0 6 -6 0 -9 41 -23 80 -27 9 0 20 -3 25
-7 8 -4 55 -19 75 -22 3 -1 11 -5 17 -9 22 -14 114 -35 133 -30 10 3 31 -2 46
-10 24 -12 55 -20 129 -32 6 -1 12 -3 15 -4 20 -10 60 -10 60 0 0 6 7 8 16 5
12 -5 14 -1 8 17 -3 12 -7 23 -8 24 -5 6 -167 103 -173 103 -4 0 -23 11 -42
23 -20 13 -69 43 -110 67 -40 24 -78 48 -85 54 -6 6 -31 22 -56 35 -25 13 -58
33 -75 45 -16 12 -42 28 -57 35 -16 8 -28 18 -28 23 0 4 -4 8 -10 8 -9 0 -84
50 -130 87 -101 80 -136 109 -138 115 -2 4 -9 8 -16 8 -11 0 -173 154 -206
196 -71 90 -140 190 -140 201 0 8 -9 28 -21 44 -11 16 -18 29 -14 29 11 0 -35
79 -52 89 -24 13 -49 2 -497 -219 -429 -212 -528 -267 -603 -334 -113 -102
-181 -313 -188 -591 -2 -66 -8 -160 -14 -210 -6 -49 -22 -198 -36 -330 -14
-132 -31 -292 -39 -355 -8 -63 -19 -155 -25 -205 -14 -120 -28 -237 -51 -430
-33 -268 -46 -487 -31 -556 40 -195 66 -212 916 -579 638 -275 595 -256 595
-277 0 -10 -4 -45 -9 -78 -5 -33 -15 -94 -21 -135 -6 -41 -20 -133 -30 -205
-11 -71 -29 -191 -40 -265 -12 -74 -27 -180 -35 -235 -7 -55 -16 -116 -20
-135 -8 -45 -42 -292 -60 -435 -8 -60 -19 -137 -24 -170 -6 -33 -15 -112 -21
-175 -7 -63 -13 -126 -14 -140 -1 -14 -6 -31 -10 -38 -4 -7 -9 -47 -11 -90 -2
-42 -9 -104 -15 -137 -7 -33 -13 -71 -15 -85 -2 -14 -4 -25 -5 -25 -2 0 -6
-21 -14 -66 -3 -20 -8 -42 -11 -51 -3 -8 -7 -37 -9 -64 -2 -27 -7 -74 -10
-104 -4 -30 -9 -66 -10 -80 -2 -14 -6 -32 -9 -40 -3 -8 -8 -33 -11 -55 -25
-213 -38 -306 -51 -368 -8 -40 -16 -92 -17 -115 -1 -24 -5 -45 -9 -48 -4 -2
-6 -20 -5 -39 2 -19 -1 -35 -6 -35 -5 0 -7 -9 -3 -19 3 -11 -4 -63 -15 -118
-18 -84 -29 -174 -34 -273 0 -14 -5 -28 -10 -32 -6 -4 -4 -14 5 -24 8 -10 9
-15 3 -11 -13 7 -29 -37 -19 -53 3 -4 -1 -10 -7 -13 -10 -3 -9 -8 2 -22 8 -10
10 -16 4 -12 -8 4 -13 -4 -16 -23 -3 -17 0 -30 6 -31 6 0 2 -4 -9 -9 -14 -5
-24 -3 -32 7 -14 18 -19 -8 -27 -128 -5 -72 -64 -329 -92 -396 -13 -29 -31
-50 -38 -42 -3 4 16 180 29 262 l5 39 -67 -7 c-98 -10 -275 -52 -362 -85 -41
-16 -77 -28 -79 -26 -7 7 163 68 253 91 50 13 128 29 173 35 94 14 84 1 106
148 l13 94 -36 -7 c-82 -15 -165 -67 -478 -302 -107 -80 -137 -107 -94 -83 11
5 23 10 28 10 4 0 -21 -17 -57 -37 -84 -47 -198 -128 -490 -343 -52 -39 -120
-88 -150 -110 -30 -21 -80 -62 -110 -90 -30 -29 -70 -64 -88 -78 -46 -35 -65
-76 -73 -157 -4 -38 -13 -101 -19 -140 -6 -38 -11 -94 -11 -123 0 -30 -4 -61
-9 -70 -5 -9 -16 -80 -25 -157 -8 -77 -22 -192 -30 -255 -15 -116 -55 -454
-81 -675 -16 -137 -18 -293 -5 -314 8 -12 24 -4 83 42 375 292 515 392 578
413 147 48 207 59 243 42 10 -6 17 -5 17 2 0 6 12 3 26 -7 15 -9 36 -19 46
-20 11 -2 37 -21 59 -43 39 -39 50 -58 27 -44 -7 4 -4 -2 6 -14 11 -12 16 -22
11 -22 -4 0 -2 -7 5 -15 7 -8 9 -15 5 -15 -4 0 -2 -7 5 -15 7 -8 9 -15 5 -15
-4 0 0 -10 8 -23 23 -35 24 -80 3 -112 -10 -15 -13 -24 -6 -20 12 8 6 -58 -10
-100 -5 -13 -6 -26 -3 -29 3 -3 1 -11 -4 -18 -6 -7 -14 -28 -18 -46 -3 -17
-11 -32 -16 -32 -5 0 -9 -9 -9 -20 0 -11 -4 -20 -9 -20 -7 0 -42 -69 -45 -90
-2 -11 -51 -85 -58 -88 -4 -2 -8 -11 -8 -19 0 -8 -14 -33 -32 -55 -17 -22 -32
-49 -33 -60 -1 -11 -7 -23 -14 -27 -10 -6 -9 -10 3 -14 26 -10 19 -39 -19 -77
l-35 -36 97 -61 c54 -33 255 -158 447 -278 458 -285 538 -325 652 -325 94 0
231 87 411 261 39 38 76 69 82 69 6 0 8 6 5 14 -3 8 0 17 7 22 8 4 10 3 5 -4
-13 -21 5 -13 43 20 101 88 433 380 646 569 266 237 291 278 354 574 18 83 43
200 56 260 13 61 43 200 65 310 23 110 52 250 65 310 74 342 80 378 80 506 0
122 -1 127 -30 175 -51 81 -155 155 -410 289 -60 32 -141 75 -180 95 -38 21
-153 81 -255 135 -102 54 -214 113 -248 132 -35 19 -65 33 -67 31 -1 -2 -15
-59 -30 -128 -14 -69 -28 -132 -30 -140 -2 -8 -4 -17 -4 -20 -2 -10 -41 75
-41 89 0 8 11 26 24 40 14 15 28 39 32 54 l6 28 -33 -21 c-19 -11 -51 -25 -73
-31 -41 -11 -120 -3 -110 12 3 5 -1 9 -8 9 -8 0 -9 3 -3 8 6 4 11 27 12 52 0
25 6 81 12 125 6 44 10 87 9 95 -2 29 2 51 10 46 4 -2 7 17 6 42 -1 26 2 52 6
57 3 6 8 30 9 55 1 24 7 50 13 57 7 9 7 13 -1 13 -7 0 -8 8 0 27 11 29 23 105
22 141 -1 12 2 22 6 22 3 0 7 12 7 28 3 63 13 122 28 166 9 26 16 61 16 79 0
18 7 45 15 60 9 18 10 25 2 20 -8 -4 -7 -1 1 10 8 9 11 21 7 26 -3 6 1 23 9
38 8 16 17 51 21 78 4 28 12 66 18 85 14 43 12 35 21 95 4 28 10 57 13 65 3 8
7 26 8 40 3 46 17 115 26 125 4 6 10 26 13 45 2 19 8 46 11 60 4 14 13 59 20
100 7 41 15 82 18 90 3 8 8 29 11 45 3 17 8 44 11 60 23 119 30 164 40 240 8
69 29 163 35 160 5 -3 6 4 3 15 -3 12 0 20 6 20 7 0 9 4 6 10 -3 5 1 35 9 67
8 32 17 74 19 93 3 19 6 35 7 35 3 0 10 39 12 72 2 18 7 33 11 33 5 0 5 5 2
10 -4 6 -1 18 6 26 7 8 13 39 15 69 1 30 5 59 9 65 3 5 11 34 16 63 6 28 14
75 20 102 5 28 11 63 14 80 3 16 8 39 12 50 4 11 8 31 9 45 0 14 7 52 14 85 6
33 13 69 15 80 2 11 4 20 5 20 1 0 3 9 5 20 2 11 7 36 11 55 4 19 7 38 6 42
-1 4 5 38 14 75 9 38 17 73 18 78 1 6 4 15 7 20 3 6 7 28 8 50 2 22 6 47 11
55 4 8 11 41 14 72 4 32 11 60 15 62 4 3 8 21 9 39 2 44 10 90 21 119 5 13 9
26 9 31 0 4 3 21 7 37 l7 30 101 -6 c128 -8 190 4 298 59 88 45 369 227 457
296 l51 41 -15 37 c-9 21 -31 58 -48 83 -63 87 -129 260 -160 416 -25 126 -46
341 -44 444 2 80 2 84 5 25 13 -319 77 -618 167 -779 50 -90 138 -198 156
-193 8 2 130 79 270 172 140 92 306 202 369 243 270 178 335 283 416 672 14
69 35 166 45 215 11 50 40 189 65 310 25 121 52 249 60 285 8 36 28 133 45
215 17 83 58 281 92 440 77 374 89 447 91 580 2 127 -11 186 -55 239 -41 50
-135 112 -237 156 -114 49 -1991 674 -2104 700 -82 19 -229 26 -282 13z m-929
-982 c-4 -6 -14 -7 -23 -4 -15 6 -14 7 3 13 22 9 29 6 20 -9z m2081 -1093 c-3
-8 -6 -5 -6 6 -1 11 2 17 5 13 3 -3 4 -12 1 -19z m-15 -60 c-6 -6 -7 0 -4 19
5 21 7 23 10 9 2 -10 0 -22 -6 -28z m-25 -80 c-3 -8 -6 -5 -6 6 -1 11 2 17 5
13 3 -3 4 -12 1 -19z m-200 -850 c-3 -8 -6 -5 -6 6 -1 11 2 17 5 13 3 -3 4
-12 1 -19z m-10 -110 c-3 -8 -6 -5 -6 6 -1 11 2 17 5 13 3 -3 4 -12 1 -19z
m-1318 -5895 c0 -25 -1 -26 -9 -8 -12 27 -12 35 0 35 6 0 10 -12 9 -27z m-25
-18 c-4 -8 -8 -15 -10 -15 -2 0 -4 7 -4 15 0 8 4 15 10 15 5 0 7 -7 4 -15z
m46 -3125 c0 -5 -5 -10 -11 -10 -5 0 -7 5 -4 10 3 6 8 10 11 10 2 0 4 -4 4
-10z"/>
<path d="M14380 20025 c0 -33 25 -33 26 0 1 15 -3 25 -12 25 -8 0 -14 -10 -14
-25z"/>
<path d="M12725 18270 c-3 -6 1 -7 9 -4 18 7 21 14 7 14 -6 0 -13 -4 -16 -10z"/>
<path d="M13776 18264 c-65 -14 -214 -69 -301 -112 -22 -11 -65 -32 -95 -46
-30 -15 -95 -48 -145 -75 -49 -26 -144 -76 -210 -111 -66 -35 -131 -71 -144
-82 -13 -10 -28 -18 -33 -18 -5 0 -41 -19 -81 -41 -40 -23 -101 -57 -136 -76
-35 -19 -76 -42 -90 -51 -14 -10 -55 -33 -91 -51 -36 -19 -72 -39 -80 -46 -8
-6 -31 -18 -50 -25 -19 -8 -62 -31 -96 -52 -34 -21 -64 -38 -67 -38 -4 0 -33
-17 -64 -37 -32 -20 -87 -52 -123 -71 -100 -51 -171 -91 -210 -116 -19 -12
-69 -39 -110 -60 -41 -21 -82 -44 -90 -51 -8 -7 -49 -31 -90 -54 -85 -48 -93
-52 -173 -103 -32 -21 -62 -38 -66 -38 -4 0 -18 -9 -31 -20 -13 -11 -28 -20
-35 -20 -7 0 -20 -9 -30 -20 -10 -11 -23 -20 -28 -20 -15 0 -137 -84 -229
-157 -130 -103 -210 -212 -277 -378 -28 -71 -38 -113 -55 -250 -22 -173 -34
-344 -41 -550 -3 -99 -7 -209 -10 -245 -2 -36 -6 -180 -9 -320 -5 -239 -8
-335 -22 -785 -10 -352 -12 -942 -3 -1075 11 -155 27 -223 82 -335 47 -97 104
-173 157 -210 22 -15 37 -31 34 -36 -3 -5 2 -9 10 -9 21 0 20 4 -8 34 -38 42
-121 264 -104 281 10 10 61 -54 92 -112 19 -38 36 -44 29 -10 -4 17 0 15 17
-10 12 -18 23 -33 25 -33 2 0 -1 16 -7 36 -5 20 -7 38 -5 41 3 2 24 -19 48
-48 71 -85 162 -179 194 -202 29 -19 29 -19 -6 19 -88 96 -143 180 -165 253
-21 72 -5 67 48 -13 28 -42 54 -76 58 -76 5 0 22 -19 39 -42 17 -23 31 -36 31
-30 0 7 -9 25 -21 41 -11 15 -21 34 -22 42 -2 8 -10 25 -19 38 -10 13 -15 28
-12 33 3 4 1 8 -4 8 -5 0 -15 21 -21 48 -7 26 -19 72 -26 102 -35 137 -42 416
-39 1460 4 1371 16 1555 116 1751 73 144 199 267 396 387 51 31 114 70 140 86
26 16 76 46 112 66 36 20 130 74 210 119 231 132 302 173 350 199 25 14 124
68 220 122 96 53 218 120 270 149 52 28 102 56 110 61 8 5 60 33 115 63 55 30
154 84 220 120 224 122 580 295 665 323 78 26 98 28 240 29 166 0 197 -5 330
-58 77 -30 287 -135 375 -186 28 -17 73 -42 100 -57 123 -66 309 -173 407
-235 59 -37 116 -70 127 -74 10 -3 26 -14 36 -25 10 -11 23 -20 30 -20 7 0 30
-13 52 -29 42 -30 148 -96 195 -120 15 -8 36 -21 46 -30 21 -19 51 -38 72 -48
8 -3 25 -17 36 -29 12 -13 24 -21 27 -18 2 2 10 -2 17 -11 7 -8 18 -15 26 -15
7 0 19 -6 27 -14 7 -8 39 -30 70 -50 31 -20 62 -45 71 -57 8 -12 25 -27 38
-33 13 -6 23 -18 23 -26 1 -8 7 -14 14 -12 7 1 19 -5 26 -14 7 -10 22 -19 35
-21 12 -2 31 -13 42 -26 11 -12 17 -17 14 -10 -4 7 4 6 24 -3 17 -9 28 -19 25
-23 -2 -5 7 -13 22 -20 33 -15 83 -62 77 -73 -3 -4 4 -8 14 -8 11 0 22 -9 25
-20 3 -11 10 -20 17 -20 6 0 8 5 4 12 -4 7 -3 8 5 4 6 -4 9 -11 6 -16 -3 -4 2
-11 11 -14 9 -3 12 -11 8 -18 -4 -7 -4 -10 1 -6 9 8 35 -15 35 -32 0 -6 4 -8
10 -5 5 3 7 0 4 -8 -7 -20 36 -59 61 -55 15 3 20 -1 22 -21 0 -14 -4 -30 -10
-34 -7 -5 -3 -6 10 -2 26 7 57 -32 47 -59 -6 -14 -1 -16 34 -10 27 4 42 2 47
-6 5 -7 4 -11 -1 -8 -5 3 -13 1 -19 -6 -14 -16 -13 -66 2 -66 19 0 26 -19 13
-35 -9 -11 -9 -15 -1 -15 6 0 11 5 11 10 0 17 14 10 34 -17 11 -14 14 -23 8
-19 -6 3 -13 2 -17 -4 -3 -5 2 -10 11 -10 15 0 15 -3 -4 -21 l-23 -20 23 -20
c22 -19 22 -20 2 -14 -18 5 -21 2 -16 -20 2 -14 11 -25 20 -25 12 0 13 -3 4
-12 -19 -19 -14 -46 9 -53 16 -5 18 -10 9 -20 -7 -8 -9 -19 -5 -25 3 -5 1 -10
-4 -10 -11 0 -15 13 -12 39 2 7 -2 10 -8 7 -5 -3 -11 -1 -14 6 -2 7 -2 2 0
-12 3 -14 6 -35 8 -48 2 -21 1 -21 -15 -7 -9 8 -25 15 -36 14 -17 0 -16 -1 4
-9 12 -5 22 -12 22 -15 0 -4 -4 -4 -9 0 -5 3 -13 0 -17 -6 -4 -8 -9 -7 -15 2
-4 7 -11 10 -15 6 -4 -3 -1 -13 6 -22 17 -20 6 -19 -15 1 -18 19 -33 11 -17
-9 12 -14 11 -34 -2 -55 -9 -14 15 -13 26 2 3 5 5 -3 5 -17 -2 -30 -7 -33 -25
-15 -9 9 -12 1 -12 -39 0 -29 -5 -55 -12 -59 -7 -4 -8 -3 -4 4 4 7 1 12 -9 12
-9 0 -13 -4 -10 -10 3 -6 -1 -7 -9 -4 -9 3 -14 10 -11 14 3 4 -5 10 -17 13
-19 5 -20 8 -7 24 13 17 13 17 -7 0 -20 -17 -22 -17 -37 5 -9 13 -16 19 -16
13 0 -16 26 -46 42 -49 20 -3 47 -26 47 -39 0 -7 -4 -7 -12 1 -17 17 -31 15
-24 -4 3 -8 2 -13 -3 -9 -5 3 -11 0 -13 -7 -3 -9 -12 -6 -29 8 -23 19 -40 52
-19 39 5 -3 9 2 9 12 -2 27 -16 80 -18 65 0 -7 -5 -11 -10 -8 -5 4 -3 19 6 36
9 18 12 41 8 59 -4 21 -2 30 10 35 9 3 21 4 26 0 5 -3 9 3 10 13 0 10 3 13 6
6 2 -7 9 -13 14 -13 4 0 6 7 3 15 -4 8 -17 13 -34 12 -15 -1 -26 -5 -23 -9 2
-5 -2 -8 -10 -8 -14 0 -56 66 -62 101 -3 12 -9 36 -14 53 -5 17 -12 43 -15 57
-3 14 -17 31 -31 37 -16 7 -24 8 -20 2 18 -30 -38 -119 -76 -120 -9 0 -22 -6
-28 -14 -18 -21 -89 -36 -166 -34 -87 1 -189 -8 -235 -21 -44 -13 -100 -43
-100 -53 0 -5 -7 -8 -15 -8 -8 0 -15 -9 -15 -21 0 -13 -4 -18 -12 -13 -10 5
-10 4 -1 -6 10 -11 10 -17 -2 -30 -12 -14 -16 -58 -18 -227 -2 -115 -6 -214
-9 -219 -3 -5 -4 -25 -2 -44 5 -48 4 -225 -2 -395 -3 -77 -7 -270 -9 -430 -2
-159 -4 -290 -4 -290 -1 0 -4 -194 -6 -431 -4 -344 -8 -438 -19 -465 -15 -37
-36 -59 -75 -79 -37 -19 -50 3 -60 105 l-8 90 -1 -85 c0 -47 3 -110 7 -140 5
-30 7 -57 6 -58 -2 -2 -10 7 -19 20 -13 20 -16 144 -21 928 -7 851 -3 1100 12
734 3 -87 8 -161 10 -164 3 -3 3 252 1 565 -2 314 0 586 3 605 9 46 -3 66 -54
90 -55 25 -99 31 -227 31 -99 0 -106 -2 -146 -30 -90 -63 -104 -51 -104 94 0
88 2 98 23 116 l22 18 -23 1 c-15 0 -29 -11 -42 -32 -21 -35 -27 -74 -10 -63
6 4 10 -7 9 -27 0 -24 -2 -28 -8 -15 -6 17 -8 16 -19 -8 -15 -33 -15 -58 0
-161 9 -63 9 -89 0 -108 -6 -14 -8 -26 -4 -26 4 0 8 -17 9 -37 1 -23 9 -42 20
-50 10 -7 23 -17 30 -23 7 -5 17 -10 23 -10 5 0 10 -5 10 -11 0 -5 4 -8 9 -4
5 3 12 1 16 -5 3 -5 18 -10 33 -11 25 0 25 -1 7 -10 -17 -8 -16 -9 8 -6 15 3
27 1 27 -2 0 -4 9 -7 20 -8 11 -1 20 3 20 8 0 6 7 3 16 -6 12 -11 20 -13 27
-6 14 14 30 14 22 1 -6 -9 -1 -11 38 -14 6 -1 17 -7 23 -15 7 -8 16 -11 24 -6
8 5 11 4 6 -3 -4 -6 -3 -19 2 -29 23 -44 33 -70 31 -79 -1 -5 0 -11 1 -14 1
-3 3 -19 5 -36 1 -16 6 -41 10 -53 6 -18 4 -22 -6 -15 -12 6 -12 5 0 -9 7 -9
9 -17 4 -17 -10 0 -18 -98 -13 -145 1 -11 3 -32 3 -47 0 -17 4 -25 11 -21 8 5
8 3 0 -8 -6 -8 -10 -26 -7 -41 2 -19 -2 -31 -16 -40 -15 -9 -17 -16 -10 -36 7
-19 6 -23 -4 -19 -10 4 -13 -5 -12 -34 1 -22 -2 -42 -7 -45 -5 -3 -6 -10 -3
-15 4 -5 0 -9 -7 -10 -7 0 -4 -4 7 -9 11 -5 15 -9 8 -9 -6 -1 -10 -10 -8 -21
2 -11 -1 -20 -7 -20 -7 0 -6 -6 2 -15 9 -11 10 -19 1 -28 -7 -9 -8 -24 -2 -45
7 -21 6 -34 -1 -38 -7 -5 -8 -2 -3 6 5 8 4 11 -2 7 -6 -4 -13 -19 -16 -34 -5
-26 -4 -26 9 -8 8 10 14 15 14 9 0 -17 -15 -32 -35 -36 -14 -2 -20 -11 -20
-28 0 -14 -4 -31 -8 -37 -5 -8 -4 -13 3 -13 6 0 9 -4 5 -9 -3 -5 -1 -12 5 -16
17 -10 11 -25 -10 -25 -21 0 -28 -24 -10 -35 15 -10 12 -35 -5 -35 -8 0 -15 7
-15 15 0 8 -5 15 -11 15 -6 0 -9 -7 -5 -15 3 -10 -1 -15 -11 -15 -15 0 -14 -2
2 -14 17 -12 17 -16 6 -30 -19 -22 -7 -31 13 -10 9 9 19 14 22 11 3 -3 -4 -15
-16 -27 -20 -20 -29 -21 -79 -2 -9 3 -12 1 -7 -6 4 -7 13 -12 21 -12 8 0 13
-9 12 -20 -1 -12 -7 -18 -14 -16 -7 3 -13 0 -13 -7 0 -7 -5 -4 -11 6 -5 9 -15
17 -22 17 -8 0 -7 -3 2 -9 7 -5 11 -13 7 -19 -11 -18 8 -21 41 -7 23 10 31 19
27 29 -3 9 -1 16 5 16 15 0 14 -33 -1 -48 -7 -7 -22 -12 -35 -12 -19 0 -23 -5
-23 -29 0 -21 -6 -30 -22 -35 -19 -5 -20 -8 -9 -15 12 -8 12 -12 2 -24 -8 -10
-9 -17 -1 -22 14 -9 13 -36 -2 -32 -7 1 -12 -4 -13 -10 0 -7 -3 -13 -7 -13 -5
0 -11 0 -14 0 -4 0 -1 6 5 13 6 8 7 18 3 22 -4 5 -2 5 5 1 6 -3 14 -3 17 2 2
4 -6 8 -19 8 -17 0 -21 -3 -15 -11 14 -16 0 -27 -17 -14 -9 9 -13 8 -13 0 0
-6 5 -11 10 -11 6 0 10 -4 10 -10 0 -6 -9 -6 -26 0 -16 7 -23 7 -19 0 3 -6 1
-10 -5 -10 -6 0 -8 -5 -5 -11 4 -6 13 -8 21 -5 8 3 14 1 14 -5 0 -7 -12 -9
-29 -7 -17 2 -28 2 -26 -1 2 -4 -3 -15 -11 -26 -13 -18 -14 -18 -14 6 0 20 -2
21 -11 9 -8 -12 -10 -10 -5 9 4 21 3 22 -9 10 -18 -17 -7 -64 14 -64 8 0 16
-6 19 -12 2 -7 -1 -13 -8 -13 -6 0 -8 5 -4 11 4 7 1 10 -7 7 -8 -3 -13 -11
-12 -17 2 -6 -4 -11 -12 -11 -8 0 -15 7 -15 15 0 8 -5 15 -11 15 -6 0 -9 7 -6
15 4 8 2 17 -3 20 -6 4 -10 -3 -10 -14 0 -11 5 -23 10 -26 6 -4 8 -11 5 -16
-4 -5 -2 -9 3 -9 6 0 9 -11 8 -25 -2 -35 -13 -31 -22 8 l-7 32 -8 -29 c-6 -22
-4 -32 8 -41 9 -6 13 -18 10 -26 -4 -11 -6 -11 -6 2 -1 9 -11 21 -23 27 -27
12 -60 13 -52 0 3 -5 14 -6 24 -3 35 11 37 -56 3 -69 -9 -4 -18 -4 -21 -1 -3
3 0 5 6 5 7 0 12 11 12 25 0 27 -7 30 -30 15 -13 -8 -12 -10 3 -10 11 0 15 -5
11 -11 -3 -6 -14 -9 -24 -6 -13 3 -17 0 -13 -9 3 -8 8 -12 12 -10 3 2 6 -7 6
-20 0 -13 -3 -24 -7 -24 -5 0 -8 6 -8 14 0 20 -24 36 -39 26 -8 -5 -12 -18 -9
-34 4 -20 1 -26 -13 -26 -9 0 -20 6 -22 13 -4 7 -8 4 -12 -10 -4 -13 -13 -19
-21 -16 -17 6 -63 -46 -63 -72 0 -18 1 -17 14 5 8 14 15 21 15 15 1 -5 8 4 15
20 8 17 14 25 15 19 0 -7 10 -15 23 -18 l22 -6 -28 -25 c-15 -13 -34 -22 -42
-19 -8 4 -15 1 -15 -5 0 -6 -7 -11 -16 -11 -8 0 -12 -4 -9 -10 10 -16 33 -12
39 8 2 9 3 2 1 -16 -4 -36 -15 -57 -15 -29 0 13 -9 17 -35 17 -19 0 -35 -3
-35 -8 0 -10 -62 -37 -77 -34 -7 2 -13 -3 -13 -10 0 -9 -3 -9 -10 2 -8 13 -10
13 -10 -2 0 -20 22 -36 28 -20 4 14 22 16 22 3 0 -19 -39 -22 -65 -5 -14 9
-28 15 -30 12 -2 -2 11 -12 30 -23 19 -10 35 -24 35 -31 0 -18 -37 -37 -45
-24 -3 5 -13 10 -22 10 -13 0 -13 -3 -3 -16 11 -12 11 -15 -1 -12 -10 2 -13
-5 -12 -24 1 -20 -2 -25 -12 -22 -9 4 -17 -4 -21 -21 -6 -23 -8 -25 -16 -11
-10 17 -58 19 -55 1 1 -5 -5 -8 -13 -6 -8 2 -20 4 -27 4 -7 0 -12 3 -11 6 0 3
0 13 -1 21 -1 13 -3 13 -10 0 -6 -8 -8 -17 -6 -20 2 -4 -2 -7 -10 -7 -12 0
-12 3 -3 16 7 9 8 13 3 8 -4 -4 -16 0 -25 8 -16 14 -18 14 -23 0 -4 -8 -1 -15
6 -15 6 0 2 -7 -9 -15 -13 -8 -33 -12 -50 -9 -33 6 -45 14 -21 14 10 0 17 8
17 20 0 11 -6 20 -12 20 -7 0 -13 11 -13 25 0 28 10 33 19 10 3 -8 15 -15 27
-15 12 0 19 5 16 13 -2 6 -10 11 -16 10 -6 -2 -11 3 -11 11 0 14 -55 30 -70
21 -15 -9 -4 24 14 44 10 11 15 24 12 30 -3 5 0 12 6 14 10 4 10 6 0 6 -22 2
-44 31 -39 52 3 10 0 25 -6 32 -7 6 -13 26 -14 42 -2 22 0 26 7 15 8 -12 10
-9 10 12 0 15 4 29 9 32 8 5 6 28 -5 84 -2 13 -8 21 -13 18 -4 -3 -8 1 -8 8 0
8 6 12 14 9 7 -3 13 2 13 12 0 9 -4 13 -10 10 -5 -3 -10 -3 -10 2 -1 4 -3 43
-7 87 -3 54 -2 77 5 72 7 -4 8 3 4 21 -9 32 31 168 41 143 5 -13 6 -13 6 0 1
21 72 21 89 0 10 -13 11 -13 6 3 -4 11 -1 17 10 17 10 0 13 6 10 15 -4 8 -1
15 6 15 6 0 9 -4 6 -9 -3 -5 0 -14 8 -20 10 -8 17 -6 30 8 18 19 27 20 59 6 9
-4 27 -5 38 -2 15 4 19 2 15 -9 -3 -8 -1 -14 4 -14 6 0 10 5 10 11 0 8 4 9 13
0 8 -6 17 -8 20 -4 4 3 22 8 39 10 18 2 35 8 36 13 2 6 13 10 24 10 15 0 19 5
15 19 -5 21 14 34 36 26 11 -5 47 60 47 85 0 6 5 10 10 10 6 0 10 7 10 15 0 8
4 15 8 15 4 0 9 12 10 27 1 15 6 29 11 33 25 15 -14 325 -45 359 -18 20 -40 7
-47 -27 -5 -23 -14 -33 -40 -41 -19 -7 -45 -23 -58 -38 -43 -46 -70 -51 -281
-52 -108 -1 -209 -6 -223 -11 -15 -6 -31 -8 -36 -4 -5 3 -9 1 -9 -4 0 -4 -16
-16 -35 -25 -59 -28 -101 -144 -104 -285 -17 -757 -19 -826 -26 -859 -5 -23
-4 -33 4 -33 9 0 9 -5 0 -21 -6 -12 -9 -34 -5 -49 7 -40 -40 -102 -93 -124
-36 -14 -78 -21 -83 -13 -1 1 -4 81 -8 177 l-7 175 1 -218 c1 -182 3 -219 16
-227 10 -6 11 -10 3 -10 -7 0 -21 12 -30 27 -16 24 -18 56 -18 308 1 819 8
1664 15 1625 5 -25 9 -153 9 -284 1 -132 4 -242 6 -244 3 -3 5 330 5 739 0
409 3 761 6 782 8 47 42 67 134 78 l65 8 -80 -4 c-92 -3 -125 -16 -148 -55
-21 -35 -27 -96 -9 -92 9 1 12 -55 10 -260 l-2 -263 -6 255 c-3 145 -8 244
-13 230 -11 -36 -15 -435 -16 -1689 -1 -607 -3 -1102 -5 -1100 -8 8 -21 281
-15 316 6 33 -3 72 -14 67 -8 -3 -14 -26 -15 -65 -1 -33 -4 -64 -7 -69 -3 -4
0 -10 6 -12 8 -3 7 -9 -3 -19 -18 -18 -29 -67 -16 -75 5 -3 4 -12 -3 -20 -6
-7 -15 -12 -19 -9 -10 6 -8 -15 3 -32 4 -6 4 -19 0 -29 -4 -11 -3 -15 4 -11
11 7 26 -31 17 -45 -3 -4 -13 -8 -22 -8 -13 0 -12 -3 6 -16 29 -20 28 -40 -5
-61 -16 -9 -30 -18 -32 -20 -2 -1 2 -9 9 -18 7 -8 9 -15 4 -15 -5 0 1 -7 13
-15 14 -10 21 -25 21 -45 -1 -17 -5 -30 -9 -30 -5 0 -6 -8 -2 -17 5 -15 3 -14
-10 2 -13 16 -18 18 -29 7 -11 -11 -10 -12 7 -6 11 4 17 4 13 -1 -4 -4 -3 -16
3 -26 12 -23 -8 -27 -31 -6 -12 10 -12 9 -1 -5 12 -17 8 -23 -12 -19 -5 1 -6
-3 -2 -8 3 -6 13 -7 22 -4 10 4 14 2 9 -5 -3 -6 -1 -14 5 -18 8 -4 9 -3 5 4
-10 17 7 15 30 -3 16 -13 16 -14 2 -9 -24 8 -23 -7 3 -35 l22 -23 -23 7 c-15
5 -20 4 -16 -4 4 -6 13 -11 20 -11 8 0 16 -10 20 -22 9 -34 8 -38 -9 -38 -8 0
-15 -4 -15 -10 0 -5 6 -8 13 -6 6 1 9 1 4 -1 -4 -3 -4 -9 -1 -15 4 -6 -1 -8
-14 -4 -17 6 -23 2 -28 -18 -4 -16 -10 -23 -18 -18 -15 10 -56 10 -50 0 3 -4
0 -8 -6 -8 -6 0 -8 -5 -4 -11 5 -9 -1 -10 -20 -5 -21 5 -26 3 -26 -13 0 -11
-9 -23 -20 -26 -11 -3 -20 -11 -20 -16 0 -6 4 -8 9 -5 5 4 12 0 14 -6 3 -8 6
-6 6 5 1 11 6 15 13 11 6 -4 8 -3 4 4 -3 6 -2 13 3 16 5 3 11 -3 14 -13 4 -16
13 -18 50 -16 26 2 53 10 62 19 22 21 31 21 14 -1 -8 -10 -9 -14 -2 -10 6 4
14 4 17 -1 2 -4 276 -9 608 -10 626 -2 687 -4 751 -30 33 -13 38 -18 33 -38
-4 -14 -2 -24 4 -24 20 0 10 -59 -16 -90 -34 -39 -43 -32 -15 13 11 19 21 44
21 56 l0 21 -317 -5 c-379 -6 -756 -14 -836 -19 -32 -1 -60 1 -63 6 -3 5 -11
5 -17 0 -7 -4 -60 -8 -119 -8 -60 1 -108 -1 -108 -4 0 -3 -32 -5 -70 -5 -66 1
-70 -1 -64 -20 15 -48 62 -86 399 -315 88 -60 191 -131 230 -157 38 -26 92
-58 120 -70 35 -16 43 -22 27 -23 -32 0 -68 20 -227 128 -509 347 -521 356
-556 424 -25 50 -24 60 11 83 16 11 30 23 30 28 0 16 -23 6 -52 -23 -16 -17
-34 -28 -38 -25 -5 3 -7 -3 -5 -14 2 -11 -5 -27 -16 -37 -18 -16 -19 -16 -19
0 0 9 4 15 9 11 6 -3 9 4 8 15 -1 18 -3 19 -13 6 -6 -9 -14 -13 -18 -9 -3 3 2
16 11 27 12 14 9 13 -10 -4 -16 -14 -30 -24 -33 -22 -2 1 -10 2 -16 2 -10 0
-9 -3 1 -9 9 -6 10 -11 2 -15 -6 -4 -11 -13 -11 -19 0 -7 4 -6 11 3 9 12 10
12 5 -3 -3 -10 -6 -21 -6 -24 0 -4 -9 2 -20 12 -26 23 -26 11 1 -26 20 -28 20
-29 1 -29 -27 0 -33 -10 -16 -28 14 -13 14 -16 0 -30 -12 -13 -18 -13 -30 -2
-11 8 -16 9 -16 1 0 -6 5 -11 11 -11 5 0 7 -4 4 -10 -3 -5 -1 -18 4 -29 8 -14
6 -22 -8 -35 -23 -21 -41 -21 -41 0 0 13 3 14 13 5 11 -9 14 -6 13 12 -2 22
-11 32 -24 24 -4 -2 0 -2 8 0 10 2 8 -2 -4 -12 -24 -18 -36 -19 -36 -2 0 9 -2
9 -9 -1 -4 -8 -12 -14 -17 -15 -5 -1 -8 -6 -6 -11 2 -5 -3 -13 -10 -18 -10 -8
-10 -11 0 -15 6 -2 9 -9 6 -14 -3 -6 2 -22 11 -37 10 -15 12 -22 5 -16 -17 17
-80 -4 -80 -26 0 -22 -25 -43 -54 -46 -16 -2 -23 3 -22 14 0 9 -7 18 -16 20
-23 5 -24 -24 -1 -32 10 -4 13 -10 8 -14 -6 -4 -16 -19 -24 -33 -10 -21 -11
-31 -1 -50 13 -23 13 -23 -13 -6 -29 19 -41 22 -33 8 4 -5 3 -11 -1 -14 -5 -2
-2 -2 4 -1 7 2 16 -8 19 -21 3 -14 11 -22 16 -19 5 3 9 -2 8 -12 -4 -36 0 -50
8 -36 6 9 12 5 22 -13 8 -15 22 -25 35 -25 27 0 52 -25 35 -35 -5 -3 -10 -12
-9 -18 0 -9 2 -9 6 1 2 6 9 12 14 12 6 0 7 -5 3 -12 -4 -6 -3 -8 3 -5 6 4 21
-5 33 -18 18 -19 26 -22 32 -13 5 9 8 8 8 -5 0 -11 20 -27 55 -44 30 -15 55
-33 55 -39 0 -7 9 -16 20 -19 11 -4 17 -11 14 -17 -4 -6 -2 -8 4 -4 6 3 13 2
17 -4 3 -5 13 -10 22 -10 9 0 29 -13 45 -30 15 -16 36 -30 46 -30 10 0 24 -9
32 -20 8 -11 20 -20 28 -20 7 0 15 -7 18 -15 4 -8 12 -15 18 -15 7 0 21 -7 32
-16 10 -8 13 -12 5 -8 -10 5 -12 3 -7 -5 6 -9 11 -9 21 -1 13 11 27 0 38 -30
4 -11 6 -9 6 5 1 18 4 16 27 -10 14 -16 23 -25 20 -18 -7 13 19 12 31 -2 4 -4
2 -5 -4 -1 -7 4 -13 2 -13 -3 0 -6 7 -11 15 -11 8 0 15 -4 15 -10 0 -5 7 -7
15 -4 8 4 15 2 15 -4 0 -5 15 -15 33 -23 17 -7 35 -17 39 -23 4 -6 18 -11 32
-12 14 0 34 -8 44 -16 73 -65 388 -97 527 -55 167 52 426 175 645 308 41 25
120 69 175 99 55 29 129 71 165 93 36 22 71 40 78 40 6 0 12 3 12 7 0 4 21 17
48 30 46 22 142 79 152 90 3 3 18 11 35 18 36 16 327 181 410 232 33 20 83 49
110 64 28 15 75 42 105 61 74 45 203 119 215 124 6 2 26 13 45 26 34 22 156
98 195 122 11 7 34 20 50 29 152 85 327 230 392 325 42 60 96 181 108 239 1 3
8 32 15 65 12 48 14 158 13 550 -1 270 -4 542 -7 605 -3 63 -8 201 -11 305 -4
105 -8 217 -10 250 -2 33 -6 112 -8 175 -3 63 -8 185 -12 270 -4 85 -10 169
-14 185 -4 17 -6 54 -5 83 1 33 -3 52 -10 52 -7 0 -7 3 -1 8 12 9 16 42 5 42
-5 0 -7 23 -6 50 2 28 -1 53 -5 56 -5 3 -7 -1 -6 -8 2 -7 2 -10 0 -5 -3 4 -12
7 -21 7 -15 1 -15 2 1 11 9 5 17 19 17 30 0 11 -4 17 -10 14 -5 -3 -10 -1 -10
4 0 6 4 11 8 11 16 0 19 175 3 250 -6 30 -14 73 -17 95 -3 22 -9 41 -14 43 -4
2 -6 11 -3 21 2 9 -2 23 -10 30 -8 6 -13 21 -10 32 3 11 -1 27 -9 37 -8 9 -14
26 -14 36 3 85 144 -80 196 -229 42 -120 64 -397 76 -960 3 -170 7 -337 9
-370 1 -33 3 -140 4 -238 1 -108 5 -176 10 -172 6 3 11 -89 12 -237 1 -134 3
-286 5 -338 4 -144 -14 -640 -25 -680 -5 -19 -19 -72 -30 -118 -22 -86 -74
-210 -111 -262 -12 -17 -18 -30 -14 -30 3 0 -11 -16 -32 -35 -22 -20 -39 -40
-39 -45 0 -11 -14 -25 -25 -25 -5 0 -29 -20 -52 -45 -47 -49 -108 -96 -108
-83 0 4 -5 1 -10 -7 -5 -9 -35 -33 -67 -54 -32 -22 -83 -56 -113 -76 -75 -50
-173 -105 -182 -102 -5 1 -8 -2 -8 -7 0 -5 -26 -19 -57 -32 -32 -12 -141 -72
-243 -132 -195 -116 -220 -130 -315 -184 -33 -19 -76 -43 -95 -55 -19 -11
-114 -65 -210 -121 -96 -55 -187 -111 -202 -125 -14 -13 -31 -22 -36 -18 -5 3
-20 -2 -33 -12 -21 -15 -202 -118 -514 -290 -136 -75 -303 -161 -378 -193 -40
-17 -87 -37 -104 -45 -45 -20 -202 -54 -235 -50 -14 2 -32 -1 -40 -5 -21 -14
98 -10 194 6 162 26 356 120 948 458 135 77 261 148 280 159 19 11 60 35 90
53 30 18 116 67 190 110 74 43 171 99 215 125 44 26 136 81 205 121 845 494
999 612 1115 854 88 184 99 292 100 945 0 486 -12 1420 -20 1565 -9 153 -13
471 -5 375 33 -400 50 -2418 22 -2637 -21 -165 -77 -306 -169 -423 -52 -66
-56 -87 -8 -40 45 44 45 26 0 -22 -34 -37 -55 -48 -55 -28 0 5 -48 -29 -107
-77 -111 -88 -137 -110 -93 -80 14 10 43 29 65 44 22 15 60 45 84 65 24 21 47
35 50 32 8 -8 -89 -94 -106 -94 -7 0 -13 -4 -13 -9 0 -5 -31 -29 -69 -53 -39
-24 -72 -49 -75 -56 -7 -17 19 -3 104 56 167 117 254 202 334 326 57 89 116
236 116 285 -1 25 -1 26 -16 6 l-16 -20 6 20 c25 89 31 287 30 1004 -2 633 0
757 12 768 12 12 14 11 14 -12 0 -14 -4 -24 -8 -21 -5 3 -9 -21 -9 -52 l0 -57
6 50 c4 31 8 -17 12 -130 3 -99 4 18 2 260 -2 242 -6 472 -8 510 -3 39 -7 151
-10 250 -16 511 -48 726 -137 914 -22 47 -51 113 -65 148 -14 34 -43 82 -65
105 -22 24 -37 37 -33 29 5 -9 4 -12 -3 -7 -6 4 -19 22 -28 41 -11 24 -27 38
-52 46 -20 6 -41 16 -46 21 -28 24 -132 87 -144 88 -8 0 -10 5 -6 13 4 6 4 9
0 5 -8 -7 -119 51 -221 114 -33 20 -98 57 -145 81 -47 25 -112 59 -145 77 -33
18 -89 48 -125 68 -36 19 -78 42 -95 52 -16 10 -73 40 -125 67 -155 81 -238
125 -370 198 -133 74 -186 103 -290 157 -36 19 -112 60 -170 90 -58 31 -134
72 -170 93 -124 71 -625 313 -700 337 -41 14 -102 31 -136 37 -82 15 -254 13
-338 -5z m-2476 -1539 c-7 -9 -15 -13 -17 -11 -7 7 7 26 19 26 6 0 6 -6 -2
-15z m-30 -15 c0 -5 -5 -10 -11 -10 -5 0 -7 5 -4 10 3 6 8 10 11 10 2 0 4 -4
4 -10z m-40 -30 c0 -5 -5 -10 -11 -10 -5 0 -7 5 -4 10 3 6 8 10 11 10 2 0 4
-4 4 -10z m-270 -167 c-6 -10 -35 -47 -65 -83 -62 -74 -170 -279 -190 -361
l-13 -54 -1 51 c-3 126 132 368 249 446 32 22 33 22 20 1z m6157 -56 c61 -65
114 -145 159 -242 28 -60 33 -85 37 -170 l5 -100 -18 85 c-34 157 -100 291
-210 420 -25 30 -50 61 -54 68 -17 29 30 -7 81 -61z m-502 -155 c-3 -3 -11 0
-18 7 -9 10 -8 11 6 5 10 -3 15 -9 12 -12z m511 -176 c19 -41 34 -83 33 -93 0
-10 -8 5 -18 32 -10 28 -28 69 -40 93 -12 23 -19 42 -16 42 4 0 22 -33 41 -74z
m-6231 27 c-4 -10 -19 -45 -32 -78 -16 -42 -21 -49 -17 -25 6 34 44 120 52
120 2 0 1 -8 -3 -17z m5915 -90 c0 -13 -3 -13 -15 -3 -8 7 -12 16 -9 21 8 13
24 1 24 -18z m357 -75 c-3 -8 -6 -5 -6 6 -1 11 2 17 5 13 3 -3 4 -12 1 -19z
m-6480 -45 c-3 -10 -5 -2 -5 17 0 19 2 27 5 18 2 -10 2 -26 0 -35z m6640 -80
c-2 -16 -4 -5 -4 22 0 28 2 40 4 28 2 -13 2 -35 0 -50z m-6653 -67 c-4 -59 -9
-104 -12 -102 -2 3 -1 53 3 111 4 59 9 104 12 102 2 -3 1 -53 -3 -111z m6153
98 c-3 -3 -12 -4 -19 -1 -8 3 -5 6 6 6 11 1 17 -2 13 -5z m450 -131 c-3 -10
-5 -2 -5 17 0 19 2 27 5 18 2 -10 2 -26 0 -35z m60 -30 c-2 -16 -4 -3 -4 27 0
30 2 43 4 28 2 -16 2 -40 0 -55z m-2347 -28 c0 -23 -3 -27 -10 -15 -5 8 -10
29 -10 45 0 23 3 27 10 15 5 -8 10 -28 10 -45z m1409 -29 c-9 -8 -10 -3 -5 23
3 18 7 41 8 50 1 9 3 -1 5 -23 3 -22 -1 -43 -8 -50z m-5742 -163 c-2 -21 -4
-4 -4 37 0 41 2 58 4 38 2 -21 2 -55 0 -75z m5293 98 c0 -6 -5 -13 -11 -17 -6
-3 -19 -25 -29 -48 l-19 -41 0 31 c-1 17 8 43 20 58 21 26 39 34 39 17z m-478
-18 c20 -24 28 -57 17 -74 -7 -11 -9 -11 -9 1 0 8 -9 32 -20 53 -21 39 -14 50
12 20z m1875 -45 c-2 -13 -4 -3 -4 22 0 25 2 35 4 23 2 -13 2 -33 0 -45z
m-1893 -80 c9 -89 17 -2415 7 -2393 -4 11 -11 279 -15 595 -3 316 -9 712 -12
880 -8 393 -11 951 -6 967 8 25 20 2 26 -49z m1061 2 c-5 -9 24 -15 48 -11 5
1 6 -3 2 -9 -10 -15 -30 -12 -56 10 -21 17 -22 19 -6 20 10 0 15 -4 12 -10z
m172 -6 c-3 -3 -12 -4 -19 -1 -8 3 -5 6 6 6 11 1 17 -2 13 -5z m-6040 -256
c-1 -40 -3 -10 -3 67 0 77 1 110 3 73 2 -37 2 -100 0 -140z m5883 196 c0 -8
-19 -13 -24 -6 -3 5 1 9 9 9 8 0 15 -2 15 -3z m827 -161 c-2 -32 -3 -6 -3 57
0 63 1 89 3 58 2 -32 2 -84 0 -115z m-842 109 c-8 -8 -25 10 -19 20 4 6 9 5
15 -3 4 -7 6 -15 4 -17z m39 7 c-8 -13 -21 -11 -27 5 -4 10 0 12 14 9 10 -3
16 -9 13 -14z m-77 -15 c-3 -3 -12 -4 -19 -1 -8 3 -5 6 6 6 11 1 17 -2 13 -5z
m43 -14 c0 -5 10 -10 22 -10 17 0 19 -3 10 -12 -9 -9 -17 -10 -29 -2 -20 13
-29 34 -14 34 6 0 11 -4 11 -10z m-3013 -72 c-3 -7 -5 -2 -5 12 0 14 2 19 5
13 2 -7 2 -19 0 -25z m2953 -42 c0 -3 -4 -8 -10 -11 -5 -3 -10 -1 -10 4 0 6 5
11 10 11 6 0 10 -2 10 -4z m-220 -27 c0 -5 -4 -9 -8 -9 -5 0 -9 7 -9 15 0 8 4
12 9 9 4 -3 8 -9 8 -15z m135 -28 c-9 -8 -36 -10 -30 -2 2 4 11 8 20 8 8 0 13
-3 10 -6z m-465 -537 c20 -1123 22 -1520 10 -1578 -6 -31 -14 -56 -18 -56 -4
0 -9 489 -11 1088 -2 598 -1 1084 3 1081 3 -3 10 -244 16 -535z m-2403 479
c-3 -10 -5 -2 -5 17 0 19 2 27 5 18 2 -10 2 -26 0 -35z m2712 29 c7 -13 6 -19
-2 -19 -7 0 -13 9 -13 19 0 10 1 18 3 18 1 0 7 -8 12 -18z m1148 -44 c-3 -8
-6 -5 -6 6 -1 11 2 17 5 13 3 -3 4 -12 1 -19z m-1007 -31 c22 -4 21 -5 -4 -4
-17 1 -31 9 -33 17 -3 10 -2 11 4 4 4 -7 19 -14 33 -17z m-2853 -39 c-2 -13
-4 -5 -4 17 -1 22 1 32 4 23 2 -10 2 -28 0 -40z m-2870 -185 c-2 -38 -3 -7 -3
67 0 74 1 105 3 68 2 -38 2 -98 0 -135z m5528 167 c-3 -5 -12 -10 -18 -10 -7
0 -6 4 3 10 19 12 23 12 15 0z m1202 -42 c-2 -13 -4 -5 -4 17 -1 22 1 32 4 23
2 -10 2 -28 0 -40z m-1150 26 c-3 -3 -12 -4 -19 -1 -8 3 -5 6 6 6 11 1 17 -2
13 -5z m-103 -29 c3 -8 1 -15 -4 -15 -6 0 -10 7 -10 15 0 8 2 15 4 15 2 0 6
-7 10 -15z m1253 -117 c-2 -18 -4 -4 -4 32 0 36 2 50 4 33 2 -18 2 -48 0 -65z
m16 -123 c-3 -9 -8 -14 -10 -11 -3 3 -2 9 2 15 9 16 15 13 8 -4z m-6756 -777
c-2 -678 6 -941 30 -1004 7 -18 6 -18 -12 -1 -26 26 -33 74 -45 312 -11 210
-6 1057 7 1220 4 44 7 94 8 110 4 66 5 75 10 75 2 0 3 -321 2 -712z m3942 552
c1 -48 -15 -120 -27 -120 -4 0 -3 48 3 107 9 107 22 114 24 13z m-613 -212
c-8 -13 -18 -39 -22 -58 -4 -19 -8 -294 -9 -610 0 -460 -3 -580 -13 -598 -8
-13 -14 -22 -15 -20 -1 1 0 280 3 618 4 550 7 619 22 653 9 20 24 37 33 37 14
0 14 -3 1 -22z m1261 -190 c-3 -8 -6 -5 -6 6 -1 11 2 17 5 13 3 -3 4 -12 1
-19z m-1067 -22 c0 -3 -4 -8 -10 -11 -5 -3 -10 -1 -10 4 0 6 5 11 10 11 6 0
10 -2 10 -4z m-3393 -68 c-3 -7 -5 -2 -5 12 0 14 2 19 5 13 2 -7 2 -19 0 -25z
m4435 25 c-6 -2 -10 -9 -6 -14 3 -5 1 -9 -4 -9 -6 0 -12 7 -16 15 -4 11 1 15
17 14 12 0 16 -3 9 -6z m-4435 -650 c-1 -109 -2 -22 -2 192 0 215 1 304 2 198
2 -105 2 -281 0 -390z m4308 447 c10 -11 16 -20 13 -20 -3 0 -13 9 -23 20 -10
11 -16 20 -13 20 3 0 13 -9 23 -20z m-65 -60 c0 -5 -2 -10 -4 -10 -3 0 -8 5
-11 10 -3 6 -1 10 4 10 6 0 11 -4 11 -10z m-55 -49 c3 -5 1 -12 -4 -15 -5 -3
-11 1 -15 9 -6 16 9 21 19 6z m-65 -104 c0 -7 -4 -6 -10 3 -8 12 -10 12 -10 1
0 -8 -3 -12 -6 -8 -9 9 6 28 17 22 5 -4 9 -12 9 -18z m-125 -37 c3 -5 2 -10
-4 -10 -5 0 -13 5 -16 10 -3 6 -2 10 4 10 5 0 13 -4 16 -10z m-20 -88 c-3 -3
-11 0 -18 7 -9 10 -8 11 6 5 10 -3 15 -9 12 -12z m-63 -57 c3 3 10 -1 17 -8 9
-11 8 -17 -4 -27 -13 -11 -16 -11 -13 1 2 9 -4 13 -14 11 -13 -2 -18 4 -18 19
0 17 3 19 13 10 8 -6 16 -9 19 -6z m-139 -70 c-3 -9 -8 -14 -10 -11 -3 3 -2 9
2 15 9 16 15 13 8 -4z m47 -27 c0 -13 -23 -5 -28 10 -2 7 2 10 12 6 9 -3 16
-11 16 -16z m101 -12 c1 5 1 12 0 17 -1 10 7 9 13 -2 3 -5 0 -14 -8 -20 -10
-8 -17 -6 -32 12 l-19 22 23 -19 c12 -11 23 -15 23 -10z m-91 -16 c0 -5 -4
-10 -10 -10 -5 0 -10 5 -10 10 0 6 5 10 10 10 6 0 10 -4 10 -10z m-115 -20 c3
-5 1 -10 -4 -10 -6 0 -11 5 -11 10 0 6 2 10 4 10 3 0 8 -4 11 -10z m35 -40
c-8 -5 -19 -10 -25 -10 -5 0 -3 5 5 10 8 5 20 10 25 10 6 0 3 -5 -5 -10z
m-118 -42 c-7 -7 -12 -8 -12 -2 0 14 12 26 19 19 2 -3 -1 -11 -7 -17z m-86
-45 c-3 -19 -19 -21 -21 -2 -2 9 3 16 10 16 7 0 12 -6 11 -14z m-172 -18 c-4
-8 -1 -15 7 -15 7 0 9 -3 6 -6 -9 -9 -38 16 -31 27 9 15 24 10 18 -6z m-3367
-62 c-2 -16 -4 -5 -4 22 0 28 2 40 4 28 2 -13 2 -35 0 -50z m3348 36 c11 -17
-1 -21 -15 -4 -8 9 -8 15 -2 15 6 0 14 -5 17 -11z m175 -4 c10 -12 10 -15 -4
-15 -9 0 -16 7 -16 15 0 8 2 15 4 15 2 0 9 -7 16 -15z m-145 -14 c-3 -5 -1
-12 5 -16 5 -3 10 -1 10 5 0 7 7 5 16 -4 18 -19 45 -21 62 -4 16 16 16 -4 0
-21 -10 -11 -10 -14 0 -18 6 -3 12 -9 12 -14 0 -12 -30 1 -52 23 -23 23 -44
18 -40 -8 2 -10 1 -16 -4 -12 -4 4 -13 3 -21 -3 -10 -9 -13 -8 -13 4 0 8 7 20
15 27 11 9 12 16 5 25 -5 6 -7 15 -3 18 9 10 15 8 8 -2z m165 -85 c-7 -7 -13
-7 -20 0 -6 6 -3 10 10 10 13 0 16 -4 10 -10z m-103 -12 c-3 -3 -12 -4 -19 -1
-8 3 -5 6 6 6 11 1 17 -2 13 -5z m-13 -23 c3 -5 -1 -11 -9 -14 -9 -4 -12 -1
-8 9 6 16 10 17 17 5z m-352 -14 c-21 -7 -36 -7 -42 -1 -7 7 5 10 32 10 l43 1
-33 -10z m-442 -41 c0 -3 -4 -8 -10 -11 -5 -3 -10 -1 -10 4 0 6 5 11 10 11 6
0 10 -2 10 -4z m-5 -175 c-3 -6 -11 -11 -16 -11 -5 0 -4 6 3 14 14 16 24 13
13 -3z m-50 -285 c18 6 18 5 5 -9 -8 -9 -26 -18 -40 -22 -20 -4 -27 -1 -36 19
-11 23 -10 24 20 15 17 -5 40 -6 51 -3z m-249 -188 c1 -10 -4 -15 -14 -14 -8
2 -16 10 -18 18 -1 10 4 15 14 14 8 -2 16 -10 18 -18z m-176 -264 c0 -2 -7 -4
-15 -4 -8 0 -15 4 -15 10 0 5 7 7 15 4 8 -4 15 -8 15 -10z m-44 -86 c5 -8 2
-9 -9 -5 -10 3 -17 2 -17 -3 0 -6 -7 -10 -15 -10 -8 0 -15 5 -15 11 0 5 4 8 9
4 5 -3 12 -1 16 5 8 13 22 13 31 -2z m1 -50 c-3 -7 -5 -2 -5 12 0 14 2 19 5
13 2 -7 2 -19 0 -25z m-147 12 c0 -5 -2 -10 -4 -10 -3 0 -8 5 -11 10 -3 6 -1
10 4 10 6 0 11 -4 11 -10z m46 -31 c3 -6 9 -7 13 -2 3 5 20 6 36 2 l30 -7 -32
-2 c-18 -1 -39 -3 -45 -4 -17 -1 -22 -54 -7 -72 6 -8 9 -17 5 -21 -3 -3 -6 -1
-6 5 0 7 -6 12 -14 12 -9 0 -12 7 -9 21 4 12 0 25 -8 29 -11 7 -10 10 4 16 9
3 17 10 17 15 0 6 -10 5 -22 -1 -22 -11 -22 -10 -4 4 23 19 32 20 42 5z m14
-59 c0 -5 -2 -10 -4 -10 -3 0 -8 5 -11 10 -3 6 -1 10 4 10 6 0 11 -4 11 -10z"/>
<path d="M12644 18224 c-18 -14 -18 -14 6 -3 31 14 36 19 24 19 -6 0 -19 -7
-30 -16z"/>
<path d="M12600 18200 c-9 -6 -10 -10 -3 -10 6 0 15 5 18 10 8 12 4 12 -15 0z"/>
<path d="M13905 17185 c-76 -41 -596 -389 -646 -434 -69 -60 -81 -93 -66 -171
17 -80 40 -104 114 -119 72 -14 337 -20 918 -23 485 -1 516 1 568 50 25 23 27
32 27 99 0 68 -2 75 -31 105 -18 18 -26 25 -19 16 18 -26 7 -42 -36 -58 -32
-11 -173 -15 -765 -17 -816 -3 -785 -6 -737 62 14 20 50 55 79 77 80 60 609
409 644 424 16 7 23 13 14 14 -9 0 -37 -11 -64 -25z m-685 -566 c0 -6 -4 -7
-10 -4 -5 3 -10 11 -10 16 0 6 5 7 10 4 6 -3 10 -11 10 -16z m1572 -1 c-7 -7
-12 -8 -12 -2 0 14 12 26 19 19 2 -3 -1 -11 -7 -17z"/>
<path d="M17535 16520 c-3 -5 -1 -10 4 -10 6 0 11 5 11 10 0 6 -2 10 -4 10 -3
0 -8 -4 -11 -10z"/>
<path d="M11613 16000 c-21 -13 -35 -31 -42 -57 -6 -21 -13 -155 -16 -298 -5
-259 -25 -1921 -28 -2385 l-2 -245 31 -55 c27 -47 39 -58 85 -78 45 -19 69
-22 144 -20 120 4 163 24 187 90 18 50 21 161 30 1558 1 234 5 452 8 485 l5
60 12 -35 c14 -40 154 -565 237 -890 151 -586 228 -894 247 -980 11 -52 22
-101 24 -108 3 -7 5 -16 5 -20 1 -4 8 -15 17 -24 8 -9 12 -22 8 -27 -3 -6 -2
-11 4 -11 5 0 8 -9 6 -20 -2 -11 0 -18 4 -16 4 3 14 -10 21 -29 7 -19 18 -31
23 -28 6 4 8 0 4 -10 -3 -10 -2 -17 3 -17 6 0 10 -6 10 -14 0 -9 9 -12 28 -10
15 2 21 1 15 -2 -18 -8 -16 -25 1 -18 7 3 16 -2 20 -11 3 -9 10 -14 14 -11 5
3 7 -7 5 -22 -2 -17 0 -21 4 -12 11 20 33 24 33 5 0 -18 16 -20 23 -2 3 7 6 5
6 -5 1 -10 6 -18 12 -18 5 0 8 4 4 9 -3 5 -1 12 4 15 5 4 12 2 16 -4 3 -5 11
-10 16 -10 6 0 7 5 3 12 -5 8 0 9 17 5 13 -4 28 -7 32 -7 5 0 6 -4 3 -9 -4 -5
3 -7 15 -4 13 4 17 8 9 13 -8 5 -7 9 4 13 8 3 16 1 18 -5 3 -7 14 -2 29 13 13
13 23 27 22 30 -1 4 9 10 22 13 14 4 25 11 25 17 0 6 13 28 29 48 36 46 53
120 51 236 0 22 -3 641 -6 1375 -6 1409 -7 1433 -51 1482 -15 17 -17 16 -32
-29 -13 -40 -21 -49 -43 -51 -17 -2 -29 -12 -37 -30 -12 -33 -19 -207 -26
-652 -9 -607 -16 -964 -20 -1020 -5 -65 -16 -558 -19 -822 -2 -137 -5 -190
-15 -202 -9 -11 -30 -16 -70 -16 -37 0 -70 -7 -96 -20 -22 -11 -47 -20 -57
-20 -34 0 -49 46 -183 555 -8 28 -23 85 -34 128 -61 228 -58 216 -242 912 -28
105 -62 231 -75 280 -13 50 -34 135 -45 190 -25 117 -46 147 -102 147 -59 0
-109 -31 -133 -82 -19 -41 -22 -69 -28 -295 -4 -137 -9 -313 -11 -390 -3 -77
-7 -329 -11 -560 -3 -230 -7 -422 -9 -426 -2 -3 -5 -77 -5 -165 -1 -87 -5
-178 -9 -200 -9 -50 -38 -83 -88 -101 -70 -24 -82 -18 -94 52 -5 27 -7 11 -6
-52 2 -79 5 -94 22 -107 20 -15 10 -22 -11 -8 -34 22 -37 76 -30 646 9 752 26
1619 31 1625 3 2 6 -83 7 -190 0 -123 6 2 14 341 8 294 15 546 16 560 2 17 10
26 26 28 12 2 22 7 22 12 0 5 19 11 43 13 38 3 37 4 -13 5 -39 1 -64 -4 -87
-18z m332 -865 c-12 -45 -14 -47 -14 -17 -1 30 16 79 24 70 2 -1 -3 -25 -10
-53z m105 15 c5 -10 36 -123 69 -251 33 -129 88 -340 121 -469 34 -129 84
-323 111 -430 28 -107 63 -244 79 -305 16 -60 54 -209 85 -330 80 -308 100
-370 127 -383 17 -8 19 -11 7 -11 -22 -1 -77 62 -84 97 -7 33 -107 429 -186
732 -287 1116 -350 1355 -359 1364 -6 6 -10 14 -10 19 0 12 29 -12 40 -33z
m998 -1467 c-2 -431 -7 -676 -13 -682 -11 -11 -10 773 2 1379 7 319 8 345 11
175 1 -110 1 -502 0 -872z m-1119 310 c-2 -731 -9 -977 -28 -995 -11 -11 -13
-7 -8 27 4 22 9 308 13 635 3 327 7 611 9 630 2 19 4 92 4 163 1 70 3 127 6
127 3 0 5 -264 4 -587z"/>
<path d="M11768 16013 c7 -3 16 -2 19 1 4 3 -2 6 -13 5 -11 0 -14 -3 -6 -6z"/>
<path d="M11818 16013 c7 -3 16 -2 19 1 4 3 -2 6 -13 5 -11 0 -14 -3 -6 -6z"/>
<path d="M11898 16013 c7 -3 16 -2 19 1 4 3 -2 6 -13 5 -11 0 -14 -3 -6 -6z"/>
<path d="M12813 16013 c9 -2 23 -2 30 0 6 3 -1 5 -18 5 -16 0 -22 -2 -12 -5z"/>
<path d="M12715 15988 c-37 -32 -62 -147 -30 -134 13 5 15 -52 16 -467 1 -260
3 -481 4 -492 1 -11 3 -40 5 -65 2 -25 6 221 9 546 6 635 4 613 57 627 14 3
12 5 -8 6 -15 0 -39 -9 -53 -21z"/>
<path d="M14700 15933 c-13 -40 -21 -49 -49 -57 -18 -5 -40 -20 -48 -33 -28
-42 -72 -52 -216 -51 -374 2 -448 -5 -524 -49 -35 -20 -46 -34 -67 -91 -22
-56 -26 -82 -25 -162 1 -52 -2 -215 -6 -362 -8 -295 -2 -354 43 -389 25 -19
44 -25 40 -11 -2 5 13 33 38 71 2 1 19 -9 38 -24 29 -22 36 -24 36 -11 0 9 3
16 8 16 4 0 6 111 4 247 -2 137 0 286 4 331 5 73 10 88 34 115 l28 31 143 -1
c229 -2 299 -5 304 -13 2 -4 35 -6 73 -5 130 3 204 62 218 172 8 65 -2 223
-15 236 -5 5 -7 16 -4 23 5 14 -22 64 -35 64 -4 0 -14 -21 -22 -47z m37 -100
c-2 -16 -4 -3 -4 27 0 30 2 43 4 28 2 -16 2 -40 0 -55z m-11 -139 c-9 -34 -28
-31 -20 4 3 15 8 34 11 42 9 23 16 -16 9 -46z m-776 -111 c-11 -21 -20 -46
-20 -56 0 -11 -5 -15 -11 -11 -15 9 -3 62 18 86 27 30 34 20 13 -19z"/>
<path d="M12151 15902 c8 -53 34 -168 48 -217 5 -16 23 -88 41 -160 17 -71 39
-159 49 -195 35 -123 90 -354 93 -390 0 -8 5 -21 10 -27 6 -7 7 -20 4 -30 -4
-9 -2 -19 3 -22 13 -9 18 -56 6 -58 -5 -1 -17 28 -25 63 -9 36 -18 62 -22 59
-3 -4 -9 13 -13 37 -4 24 -16 70 -27 103 -11 33 -21 76 -23 95 -2 19 -8 49
-15 65 -6 17 -14 46 -17 65 -3 19 -17 56 -30 83 -15 31 -21 56 -17 72 3 14 2
25 -4 25 -10 0 -22 34 -28 85 -2 17 -11 35 -20 42 -10 7 -14 19 -10 28 3 9 2
13 -4 10 -14 -8 -13 -38 2 -53 9 -9 9 -12 0 -12 -8 0 -9 -6 -2 -22 8 -19 27
-84 41 -148 2 -8 11 -21 19 -28 8 -8 9 -11 2 -7 -9 5 -11 0 -7 -17 3 -12 28
-111 56 -218 56 -221 73 -292 90 -370 7 -30 16 -62 20 -71 5 -9 13 -41 18 -70
12 -69 55 -242 82 -329 15 -50 26 -70 44 -78 30 -14 37 -4 25 37 -5 19 -5 29
1 26 5 -4 9 -1 9 6 0 8 4 8 15 -1 10 -9 15 -9 15 -1 0 20 16 12 28 -14 16 -34
48 -33 56 3 15 67 30 1462 16 1462 -5 0 -10 -134 -10 -297 -1 -164 -3 -318 -5
-343 -2 -25 -6 -214 -10 -420 -4 -206 -8 -381 -8 -388 -1 -25 -16 4 -31 58 -8
30 -23 87 -34 125 -17 63 -53 197 -111 415 -11 41 -40 154 -66 250 -26 96 -64
243 -85 325 -77 301 -88 341 -109 396 -12 31 -32 66 -45 78 l-23 22 8 -49z
m279 -1148 c0 -14 -4 -23 -10 -19 -5 3 -10 15 -10 26 0 10 5 19 10 19 6 0 10
-12 10 -26z m64 -260 c3 -8 2 -12 -4 -9 -6 3 -10 10 -10 16 0 14 7 11 14 -7z"/>
<path d="M16494 15804 c3 -21 33 -28 33 -8 0 8 -3 12 -5 9 -3 -3 -11 0 -18 6
-9 7 -12 6 -10 -7z"/>
<path d="M12100 15781 c0 -6 4 -13 10 -16 6 -3 7 1 4 9 -7 18 -14 21 -14 7z"/>
<path d="M12116 15732 c-3 -6 -2 -13 3 -16 5 -3 7 -14 4 -24 -2 -10 3 -24 11
-31 14 -12 15 -10 10 20 -9 45 -19 65 -28 51z"/>
<path d="M16655 15680 c-8 -13 -1 -23 19 -26 16 -2 15 28 -1 33 -6 2 -14 -1
-18 -7z"/>
<path d="M16557 15673 c-10 -9 -9 -23 1 -23 5 0 9 7 9 15 0 17 -1 18 -10 8z"/>
<path d="M16565 15610 c-3 -5 -2 -10 4 -10 5 0 13 5 16 10 3 6 2 10 -4 10 -5
0 -13 -4 -16 -10z"/>
<path d="M16637 15555 c3 -8 9 -12 14 -9 12 7 11 11 -5 17 -10 4 -13 1 -9 -8z"/>
<path d="M16540 15506 c0 -2 7 -7 16 -10 8 -3 12 -2 9 4 -6 10 -25 14 -25 6z"/>
<path d="M10011 15334 c0 -11 3 -14 6 -6 3 7 2 16 -1 19 -3 4 -6 -2 -5 -13z"/>
<path d="M10001 15294 c0 -11 3 -14 6 -6 3 7 2 16 -1 19 -3 4 -6 -2 -5 -13z"/>
<path d="M10003 15210 c0 -36 2 -50 4 -32 2 17 2 47 0 65 -2 17 -4 3 -4 -33z"/>
<path d="M6773 14997 c1 -15 5 -27 10 -27 4 0 7 -4 7 -9 0 -4 -16 -7 -35 -5
-27 2 -35 -1 -35 -14 0 -15 2 -15 11 -2 9 12 10 11 6 -5 -3 -11 -8 -28 -12
-38 -6 -14 -4 -16 11 -11 14 5 13 1 -6 -16 -17 -15 -21 -24 -12 -27 6 -3 9 -9
6 -15 -9 -13 -8 -123 0 -137 4 -6 3 -11 -2 -11 -6 0 -7 -14 -1 -37 11 -49 11
-55 0 -49 -5 4 -3 -16 4 -44 11 -42 11 -51 -1 -61 -9 -7 -11 -16 -5 -23 5 -6
12 -54 16 -106 4 -52 12 -100 17 -107 6 -7 5 -14 -2 -18 -6 -3 -8 -10 -6 -14
3 -4 8 -30 12 -57 3 -27 10 -57 15 -66 6 -11 6 -18 0 -18 -6 0 -6 -12 -1 -31
5 -18 7 -35 5 -40 -3 -4 -1 -10 4 -13 4 -3 9 -16 9 -28 0 -29 33 -204 67 -363
14 -66 30 -148 35 -183 6 -34 14 -80 19 -102 5 -22 7 -40 4 -40 -3 0 0 -7 7
-15 6 -8 9 -18 6 -23 -3 -4 5 -55 18 -113 13 -57 28 -131 35 -164 7 -33 21
-100 32 -150 29 -135 59 -326 53 -336 -3 -5 -1 -9 3 -9 5 0 8 -69 8 -152 -2
-153 -15 -235 -37 -222 -7 5 -9 -2 -4 -20 4 -15 2 -26 -4 -26 -5 0 -10 5 -10
12 0 6 -3 8 -6 5 -11 -10 -37 32 -78 123 -21 47 -43 90 -48 97 -5 7 -20 52
-32 100 -19 75 -25 88 -42 86 -16 -2 -295 -147 -734 -382 -312 -168 -407 -238
-430 -321 -20 -73 -10 -227 24 -375 9 -38 28 -125 41 -193 13 -67 29 -139 34
-160 6 -20 17 -77 26 -127 9 -49 25 -128 35 -175 20 -90 55 -262 76 -370 25
-133 65 -305 78 -334 8 -17 19 -46 27 -65 15 -40 77 -122 129 -171 108 -102
170 -150 196 -150 10 -1 37 -7 59 -15 55 -20 331 -20 445 0 78 13 221 43 281
59 13 3 0 -6 -29 -19 -128 -60 -333 -96 -554 -97 -82 0 -148 -2 -148 -3 0 -1
48 -45 108 -96 59 -52 125 -110 147 -130 22 -20 65 -59 96 -85 31 -27 141
-123 244 -214 323 -285 394 -328 522 -317 82 6 213 69 438 210 83 52 278 174
435 272 157 97 287 179 289 181 3 2 -5 14 -17 27 -12 13 -35 49 -51 80 -16 31
-30 54 -32 52 -2 -2 -5 8 -6 22 0 14 -5 28 -11 32 -21 13 -104 202 -107 245
-2 25 -11 56 -19 68 -8 13 -15 28 -16 33 0 6 -4 10 -9 10 -5 0 -13 4 -18 9 -5
5 -3 6 5 2 17 -10 15 10 -4 28 -8 9 -12 16 -8 16 4 0 -1 9 -10 19 -10 11 -18
38 -20 63 -1 24 -5 49 -10 56 -4 6 -5 16 -1 21 3 5 1 13 -5 16 -8 5 -7 12 2
23 10 12 10 14 1 8 -18 -10 -16 2 2 21 9 8 13 18 10 21 -3 4 -10 1 -14 -6 -6
-9 -11 -8 -24 5 -18 21 -19 33 -4 52 10 12 9 13 -3 6 -9 -5 -7 1 5 15 11 13
14 20 8 16 -9 -5 -11 -2 -7 8 3 9 10 16 16 16 5 0 7 4 4 8 -3 5 4 15 15 22 10
8 19 20 19 27 0 7 9 17 20 23 11 6 18 15 15 19 -2 5 2 14 10 21 9 8 15 8 15 2
0 -13 24 -10 44 7 9 7 16 10 16 6 0 -4 6 -3 13 3 14 12 57 12 57 0 0 -4 8 -8
18 -8 9 -1 33 -10 52 -20 59 -32 134 -69 149 -72 16 -3 43 -23 75 -53 36 -34
79 -60 126 -75 25 -8 61 -24 80 -37 19 -13 39 -23 45 -23 22 0 95 -46 228
-147 77 -57 145 -102 152 -99 21 8 38 140 31 240 -4 50 -36 334 -71 631 -59
502 -62 541 -47 556 10 9 105 67 212 129 107 62 297 174 422 249 126 75 244
145 263 157 34 20 35 21 17 37 -15 14 -19 15 -19 2 0 -8 4 -12 9 -9 4 3 8 0 8
-5 0 -18 -20 -13 -28 7 -10 24 -25 25 -95 3 -34 -10 -95 -24 -134 -31 -42 -7
-73 -17 -73 -23 0 -8 -4 -7 -9 2 -5 7 -22 13 -37 13 -16 0 -32 5 -36 12 -6 8
-8 8 -8 -1 0 -7 -17 -11 -45 -11 -25 1 -45 5 -45 10 0 4 -20 8 -45 8 -25 0
-45 4 -45 8 0 11 -38 12 -66 2 -24 -10 -35 4 -11 13 6 3 2 6 -11 6 -15 1 -21
-3 -16 -11 5 -8 0 -9 -14 -6 -14 4 -25 0 -31 -10 -7 -13 -10 -12 -16 8 -6 18
-9 20 -17 9 -7 -11 -11 -11 -15 -1 -2 6 -10 9 -16 5 -6 -4 -25 -8 -42 -9 -16
-1 -30 -3 -30 -4 0 -1 -8 -3 -17 -5 -10 -2 -25 -10 -34 -19 -8 -9 -23 -16 -33
-16 -9 0 -22 -5 -27 -10 -6 -6 -26 -11 -46 -12 -30 -1 -47 9 -119 71 -46 39
-114 90 -151 114 -60 37 -324 228 -713 517 -304 224 -397 282 -477 296 -37 6
-38 5 -38 -22 0 -16 6 -72 14 -124 28 -186 29 -215 12 -229 -9 -8 -16 -24 -16
-37 0 -25 -21 -45 -28 -26 -2 7 -16 12 -31 12 -35 0 -44 9 -28 28 10 13 9 15
-5 9 -12 -4 -15 -2 -11 9 3 9 -1 14 -12 14 -34 0 -45 24 -30 65 12 36 11 40
-12 64 -19 20 -26 38 -27 73 -1 26 3 50 9 52 5 2 2 5 -7 5 -21 1 -24 17 -5 24
8 4 8 6 1 6 -8 1 -10 16 -8 41 2 22 0 40 -6 40 -5 0 -2 17 6 38 11 26 12 33 3
25 -7 -7 -20 -13 -29 -13 -12 1 -11 3 4 11 11 7 14 14 8 18 -6 3 -13 24 -16
46 -2 22 -10 56 -15 74 -8 26 -8 37 2 43 8 5 9 8 0 8 -7 0 -11 20 -10 59 1 38
-4 65 -13 76 -8 9 -15 38 -17 64 -5 73 -5 75 -16 89 -6 8 -12 23 -12 35 -1 11
-7 23 -14 25 -9 3 -9 7 0 18 9 11 8 14 -1 14 -8 0 -10 3 -7 7 4 3 0 17 -9 31
-8 13 -13 26 -11 29 3 2 -1 21 -9 40 -9 19 -13 38 -10 41 3 3 1 11 -5 18 -6 8
-9 21 -5 29 3 8 2 15 -2 15 -4 0 -8 12 -7 28 0 15 -3 29 -7 32 -4 3 -9 18 -12
34 -3 16 -10 34 -15 39 -5 5 -7 16 -4 25 5 11 3 13 -7 7 -9 -5 -11 -4 -6 4 4
6 2 27 -4 46 -6 19 -13 48 -15 64 -2 17 -9 40 -15 51 -6 11 -7 20 -3 20 4 0 1
5 -7 10 -13 9 -13 10 0 10 13 0 13 2 0 10 -8 5 -15 24 -16 42 -3 49 -3 50 -14
43 -6 -3 -7 1 -4 9 3 9 1 16 -5 16 -6 0 -11 16 -11 35 0 19 -4 35 -9 35 -5 0
-7 8 -4 18 2 10 -3 24 -11 31 -9 8 -16 22 -16 32 0 11 -4 19 -9 19 -5 0 -8 8
-7 18 4 24 -15 63 -27 55 -6 -4 -8 2 -5 15 4 12 3 24 -2 27 -4 2 -10 17 -13
32 -3 16 -15 38 -27 51 -18 19 -19 22 -4 22 16 0 16 2 -1 20 -10 11 -14 20 -9
20 5 0 1 5 -8 11 -10 5 -18 17 -18 25 0 10 -5 12 -12 8 -10 -6 -9 -3 0 8 15
19 7 42 -27 72 -12 11 -21 26 -21 34 0 8 -6 12 -14 9 -8 -3 -20 2 -28 11 -9
11 -10 14 0 8 19 -11 14 2 -8 24 -12 12 -26 18 -32 14 -6 -4 -9 -3 -6 2 8 12
-18 35 -28 26 -5 -4 -2 2 7 13 17 20 15 50 -2 39 -5 -3 -9 0 -9 5 0 6 -5 11
-11 11 -5 0 -7 -5 -3 -11 3 -6 -5 -3 -20 6 -15 10 -29 15 -33 12 -3 -4 -12 1
-19 11 -11 15 -12 14 -11 -11z m827 -2386 c0 -6 -4 -13 -10 -16 -5 -3 -10 1
-10 9 0 9 5 16 10 16 6 0 10 -4 10 -9z m114 -157 c4 -9 3 -20 0 -23 -4 -3 -9
0 -11 7 -3 6 -14 12 -26 13 -21 0 -21 1 -2 9 29 12 32 12 39 -6z m655 -1978
c-2 -2 -15 -9 -29 -15 -24 -11 -24 -11 -6 3 16 13 49 24 35 12z"/>
<path d="M10031 14984 c0 -11 3 -14 6 -6 3 7 2 16 -1 19 -3 4 -6 -2 -5 -13z"/>
<path d="M9992 14955 c0 -16 2 -22 5 -12 2 9 2 23 0 30 -3 6 -5 -1 -5 -18z"/>
<path d="M10021 14824 c0 -11 3 -14 6 -6 3 7 2 16 -1 19 -3 4 -6 -2 -5 -13z"/>
<path d="M12711 14754 c0 -11 3 -14 6 -6 3 7 2 16 -1 19 -3 4 -6 -2 -5 -13z"/>
<path d="M9983 14710 c0 -30 2 -43 4 -27 2 15 2 39 0 55 -2 15 -4 2 -4 -28z"/>
<path d="M15305 14691 c-3 -5 -2 -12 3 -15 5 -3 9 1 9 9 0 17 -3 19 -12 6z"/>
<path d="M9973 14495 c0 -22 2 -30 4 -17 2 12 2 30 0 40 -3 9 -5 -1 -4 -23z"/>
<path d="M15513 14440 c0 -30 2 -43 4 -27 2 15 2 39 0 55 -2 15 -4 2 -4 -28z"/>
<path d="M9973 14375 c0 -27 2 -38 4 -22 2 15 2 37 0 50 -2 12 -4 0 -4 -28z"/>
<path d="M13521 14344 c0 -11 3 -14 6 -6 3 7 2 16 -1 19 -3 4 -6 -2 -5 -13z"/>
<path d="M15513 14315 c0 -22 2 -30 4 -17 2 12 2 30 0 40 -3 9 -5 -1 -4 -23z"/>
<path d="M12680 14266 c-6 -19 -19 -37 -28 -39 -16 -4 -16 -5 0 -6 24 -1 48
26 48 55 0 33 -6 30 -20 -10z"/>
<path d="M13522 14230 c0 -14 2 -19 5 -12 2 6 2 18 0 25 -3 6 -5 1 -5 -13z"/>
<path d="M17408 13812 c1 -241 4 -466 5 -502 2 -36 4 159 5 432 1 273 -1 499
-5 501 -5 3 -7 -191 -5 -431z"/>
<path d="M9964 14145 c0 -49 1 -71 3 -48 2 23 2 64 0 90 -2 26 -3 8 -3 -42z"/>
<path d="M18034 14130 c0 -58 1 -81 3 -52 2 28 2 76 0 105 -2 28 -3 5 -3 -53z"/>
<path d="M17232 14190 c0 -19 2 -27 5 -17 2 9 2 25 0 35 -3 9 -5 1 -5 -18z"/>
<path d="M15067 14073 c3 -7 6 -13 8 -13 2 0 5 6 8 13 3 8 -1 14 -8 14 -7 0
-11 -6 -8 -14z"/>
<path d="M17232 14025 c0 -16 2 -22 5 -12 2 9 2 23 0 30 -3 6 -5 -1 -5 -18z"/>
<path d="M11582 14000 c0 -14 2 -19 5 -12 2 6 2 18 0 25 -3 6 -5 1 -5 -13z"/>
<path d="M18031 14004 c0 -11 3 -14 6 -6 3 7 2 16 -1 19 -3 4 -6 -2 -5 -13z"/>
<path d="M13522 13960 c0 -14 2 -19 5 -12 2 6 2 18 0 25 -3 6 -5 1 -5 -13z"/>
<path d="M18042 13830 c0 -19 2 -27 5 -17 2 9 2 25 0 35 -3 9 -5 1 -5 -18z"/>
<path d="M9954 13760 c0 -52 1 -74 3 -47 2 26 2 68 0 95 -2 26 -3 4 -3 -48z"/>
<path d="M13522 13810 c0 -14 2 -19 5 -12 2 6 2 18 0 25 -3 6 -5 1 -5 -13z"/>
<path d="M13441 13794 c0 -11 3 -14 6 -6 3 7 2 16 -1 19 -3 4 -6 -2 -5 -13z"/>
<path d="M14823 13793 c-3 -10 -8 -22 -11 -27 -3 -5 0 -6 5 -3 11 7 25 47 17
47 -3 0 -7 -8 -11 -17z"/>
<path d="M15522 13785 c0 -16 2 -22 5 -12 2 9 2 23 0 30 -3 6 -5 -1 -5 -18z"/>
<path d="M18043 13745 c0 -27 2 -38 4 -22 2 15 2 37 0 50 -2 12 -4 0 -4 -28z"/>
<path d="M14786 13757 c3 -10 9 -15 12 -12 3 3 0 11 -7 18 -10 9 -11 8 -5 -6z"/>
<path d="M14837 13729 c4 -13 8 -18 11 -10 2 7 -1 18 -6 23 -8 8 -9 4 -5 -13z"/>
<path d="M15523 13690 c0 -25 2 -35 4 -22 2 12 2 32 0 45 -2 12 -4 2 -4 -23z"/>
<path d="M13523 13675 c0 -22 2 -30 4 -17 2 12 2 30 0 40 -3 9 -5 -1 -4 -23z"/>
<path d="M15524 13465 c0 -99 2 -138 3 -87 2 51 2 132 0 180 -1 48 -3 6 -3
-93z"/>
<path d="M14680 13609 c0 -5 5 -7 10 -4 6 3 10 8 10 11 0 2 -4 4 -10 4 -5 0
-10 -5 -10 -11z"/>
<path d="M13522 13585 c0 -16 2 -22 5 -12 2 9 2 23 0 30 -3 6 -5 -1 -5 -18z"/>
<path d="M14701 13574 c0 -11 3 -14 6 -6 3 7 2 16 -1 19 -3 4 -6 -2 -5 -13z"/>
<path d="M13440 13507 c0 -24 -5 -48 -12 -55 -9 -9 -8 -12 5 -12 14 0 17 10
17 55 0 30 -2 55 -5 55 -3 0 -5 -19 -5 -43z"/>
<path d="M13521 13524 c0 -11 3 -14 6 -6 3 7 2 16 -1 19 -3 4 -6 -2 -5 -13z"/>
<path d="M14590 13519 c0 -5 5 -7 10 -4 6 3 10 8 10 11 0 2 -4 4 -10 4 -5 0
-10 -5 -10 -11z"/>
<path d="M14526 13498 c3 -5 10 -6 15 -3 13 9 11 12 -6 12 -8 0 -12 -4 -9 -9z"/>
<path d="M14516 13458 c3 -5 10 -6 15 -3 13 9 11 12 -6 12 -8 0 -12 -4 -9 -9z"/>
<path d="M14495 13390 c-3 -5 -2 -10 4 -10 5 0 13 5 16 10 3 6 2 10 -4 10 -5
0 -13 -4 -16 -10z"/>
<path d="M14448 13373 c7 -3 16 -2 19 1 4 3 -2 6 -13 5 -11 0 -14 -3 -6 -6z"/>
<path d="M14051 13336 c-8 -10 -9 -16 -1 -21 6 -3 8 -10 6 -14 -3 -4 1 -8 9
-8 9 0 11 4 6 11 -5 6 -7 19 -6 29 4 21 1 21 -14 3z"/>
<path d="M14315 13340 c-3 -5 -1 -10 4 -10 6 0 11 5 11 10 0 6 -2 10 -4 10 -3
0 -8 -4 -11 -10z"/>
<path d="M13395 13320 c3 -5 8 -10 11 -10 2 0 4 5 4 10 0 6 -5 10 -11 10 -5 0
-7 -4 -4 -10z"/>
<path d="M14290 13308 c0 -4 12 -8 27 -8 14 0 23 3 19 7 -10 10 -46 11 -46 1z"/>
<path d="M14404 13285 c34 -18 36 -18 36 -4 0 5 -4 7 -10 4 -5 -3 -10 -1 -10
4 0 6 -10 11 -22 11 -21 0 -21 -1 6 -15z"/>
<path d="M14337 13275 c-16 -11 -16 -13 -2 -19 9 -3 13 -10 10 -16 -4 -6 -10
-8 -15 -5 -4 3 -13 -2 -20 -10 -10 -12 -10 -15 1 -15 11 0 11 -3 -1 -11 -13
-9 -13 -10 0 -6 8 2 14 11 12 20 -2 11 3 14 20 10 13 -3 20 -2 16 2 -4 5 -4
13 1 19 5 6 6 19 2 28 -5 14 -9 15 -24 3z"/>
<path d="M14157 13266 c-3 -7 -3 -25 0 -40 5 -23 9 -27 30 -21 14 3 31 1 38
-5 18 -15 29 30 12 48 -21 20 -75 32 -80 18z m51 -12 c12 -4 22 -10 22 -15 0
-15 -37 -10 -50 6 -13 16 -8 18 28 9z"/>
<path d="M14131 13244 c0 -11 3 -14 6 -6 3 7 2 16 -1 19 -3 4 -6 -2 -5 -13z"/>
<path d="M10002 13195 c0 -16 2 -22 5 -12 2 9 2 23 0 30 -3 6 -5 -1 -5 -18z"/>
<path d="M14265 13200 c-3 -5 -2 -10 4 -10 5 0 13 5 16 10 3 6 2 10 -4 10 -5
0 -13 -4 -16 -10z"/>
<path d="M17403 13165 c0 -27 2 -38 4 -22 2 15 2 37 0 50 -2 12 -4 0 -4 -28z"/>
<path d="M14098 13173 c7 -3 16 -2 19 1 4 3 -2 6 -13 5 -11 0 -14 -3 -6 -6z"/>
<path d="M10003 13105 c0 -33 2 -45 4 -27 2 18 2 45 0 60 -2 15 -4 0 -4 -33z"/>
<path d="M17392 13040 c0 -14 2 -19 5 -12 2 6 2 18 0 25 -3 6 -5 1 -5 -13z"/>
<path d="M10001 13024 c0 -11 3 -14 6 -6 3 7 2 16 -1 19 -3 4 -6 -2 -5 -13z"/>
<path d="M18043 12695 c0 -22 2 -30 4 -17 2 12 2 30 0 40 -3 9 -5 -1 -4 -23z"/>
<path d="M12770 12710 c0 -5 5 -10 10 -10 6 0 10 5 10 10 0 6 -4 10 -10 10 -5
0 -10 -4 -10 -10z"/>
<path d="M9961 12624 c0 -11 3 -14 6 -6 3 7 2 16 -1 19 -3 4 -6 -2 -5 -13z"/>
<path d="M13330 12623 c0 -4 5 -15 10 -23 8 -13 10 -13 10 2 0 9 -4 20 -10 23
-5 3 -10 3 -10 -2z"/>
<path d="M13390 12613 c0 -5 5 -15 10 -23 8 -12 10 -11 10 8 0 12 -4 22 -10
22 -5 0 -10 -3 -10 -7z"/>
<path d="M13270 12550 c0 -5 5 -10 11 -10 5 0 7 5 4 10 -3 6 -8 10 -11 10 -2
0 -4 -4 -4 -10z"/>
<path d="M13320 12540 c8 -5 20 -10 25 -10 6 0 3 5 -5 10 -8 5 -19 10 -25 10
-5 0 -3 -5 5 -10z"/>
<path d="M13275 12520 c3 -5 8 -10 11 -10 2 0 4 5 4 10 0 6 -5 10 -11 10 -5 0
-7 -4 -4 -10z"/>
<path d="M11135 12373 c121 -89 385 -251 385 -236 0 4 -12 15 -28 24 -75 44
-322 201 -361 229 -24 17 -51 34 -60 37 -9 3 20 -21 64 -54z"/>
<path d="M13120 12388 c0 -4 4 -8 9 -8 5 0 11 -9 14 -20 6 -24 27 -27 27 -4 0
9 5 12 13 8 7 -4 9 -3 4 2 -5 5 -13 10 -18 10 -5 1 -14 2 -20 3 -5 0 -8 5 -5
9 3 5 -1 9 -9 9 -8 0 -15 -4 -15 -9z"/>
<path d="M16824 12294 c-18 -14 -18 -15 4 -4 12 6 22 13 22 15 0 8 -5 6 -26
-11z"/>
<path d="M11232 12248 c35 -30 93 -64 84 -50 -3 6 -30 24 -59 42 -37 22 -44
24 -25 8z"/>
<path d="M16689 12177 c-46 -29 -106 -65 -132 -81 -27 -15 -46 -30 -44 -32 6
-6 211 115 247 145 42 35 17 24 -71 -32z"/>
<path d="M11330 12187 c0 -6 98 -67 107 -67 8 0 -13 15 -69 49 -21 12 -38 20
-38 18z"/>
<path d="M12973 12055 c0 -8 4 -12 9 -9 5 3 6 10 3 15 -9 13 -12 11 -12 -6z"/>
<path d="M16280 11963 c-80 -47 -200 -117 -267 -156 -191 -112 -720 -420 -761
-443 -20 -11 -66 -37 -102 -56 -36 -20 -101 -56 -145 -80 -424 -236 -517 -284
-675 -347 -139 -56 -229 -74 -349 -69 -56 1 -93 -1 -85 -5 20 -11 269 -3 319
11 26 7 42 8 46 1 13 -21 214 64 444 188 61 33 146 79 190 103 44 24 92 51
107 62 14 10 28 18 31 18 2 0 71 39 153 86 82 47 172 99 199 114 180 101 611
354 831 487 67 40 132 79 145 86 63 35 99 60 99 70 0 5 -8 3 -17 -5 -10 -8
-27 -18 -38 -22 -16 -5 -15 -3 5 13 57 45 6 23 -130 -56z m-930 -577 c0 -2 -7
-7 -16 -10 -8 -3 -12 -2 -9 4 6 10 25 14 25 6z m-90 -51 c-33 -19 -49 -19 -24
0 10 8 26 14 34 14 9 0 4 -6 -10 -14z m-129 -75 c-13 -11 -31 -20 -40 -19 -9
1 -5 6 12 12 15 6 27 14 27 19 0 4 6 8 13 8 6 -1 1 -10 -12 -20z m-76 -40
c-10 -11 -21 -17 -24 -14 -3 3 3 12 13 20 28 20 32 17 11 -6z m-51 -35 c-10
-8 -25 -15 -33 -15 -15 0 -13 8 2 9 4 0 15 7 24 16 8 9 18 13 21 10 3 -3 -3
-12 -14 -20z m-84 -38 c-25 -23 -90 -59 -90 -50 0 4 22 20 48 35 54 31 62 34
42 15z m-250 -142 c-14 -8 -29 -14 -35 -14 -5 0 1 6 15 14 14 8 30 14 35 14 6
0 -1 -6 -15 -14z m-70 -30 c0 -2 -10 -9 -22 -15 -22 -11 -22 -10 -4 4 21 17
26 19 26 11z m-60 -35 c-8 -5 -19 -10 -25 -10 -5 0 -3 5 5 10 8 5 20 10 25 10
6 0 3 -5 -5 -10z m-71 -34 c-15 -13 -49 -25 -49 -17 0 5 8 12 18 14 24 6 36 8
31 3z m-61 -31 c-8 -8 -68 -25 -68 -19 0 6 41 23 59 23 8 1 12 -1 9 -4z m-88
-35 c-8 -5 -24 -9 -35 -9 -16 1 -16 2 5 9 35 11 48 11 30 0z"/>
<path d="M12825 12000 c-3 -5 -1 -10 4 -10 6 0 11 5 11 10 0 6 -2 10 -4 10 -3
0 -8 -4 -11 -10z"/>
<path d="M18155 11910 c-3 -6 1 -7 9 -4 18 7 21 14 7 14 -6 0 -13 -4 -16 -10z"/>
<path d="M12761 11901 c-10 -7 -7 -9 12 -8 14 1 23 5 20 10 -6 9 -15 9 -32 -2z"/>
<path d="M12683 11844 c-15 -16 -16 -24 -4 -24 8 0 24 30 19 35 -2 2 -9 -3
-15 -11z"/>
<path d="M12661 11724 c0 -11 3 -14 6 -6 3 7 2 16 -1 19 -3 4 -6 -2 -5 -13z"/>
<path d="M11720 11465 c0 -9 6 -12 15 -9 8 4 15 7 15 9 0 2 -7 5 -15 9 -9 3
-15 0 -15 -9z"/>
<path d="M11945 11400 c3 -5 8 -10 11 -10 2 0 4 5 4 10 0 6 -5 10 -11 10 -5 0
-7 -4 -4 -10z"/>
<path d="M12857 11349 c7 -7 15 -10 18 -7 3 3 -2 9 -12 12 -14 6 -15 5 -6 -5z"/>
<path d="M12920 11314 c0 -2 14 -10 30 -19 17 -9 30 -12 30 -7 0 4 -13 13 -30
19 -16 6 -30 10 -30 7z"/>
<path d="M12965 11220 c3 -4 14 -10 25 -13 11 -3 18 -2 15 3 -3 4 -14 10 -25
13 -11 3 -18 2 -15 -3z"/>
<path d="M13105 11213 c20 -19 88 -57 81 -45 -4 7 -26 22 -49 33 -23 12 -37
17 -32 12z"/>
<path d="M13020 11190 c0 -6 7 -10 15 -10 8 0 15 2 15 4 0 2 -7 6 -15 10 -8 3
-15 1 -15 -4z"/>
<path d="M13200 11160 c0 -5 5 -10 11 -10 5 0 7 5 4 10 -3 6 -8 10 -11 10 -2
0 -4 -4 -4 -10z"/>
<path d="M13285 11112 c13 -14 205 -115 210 -110 2 2 -47 30 -108 62 -62 32
-107 54 -102 48z"/>
<path d="M13176 11101 c5 -5 20 -12 34 -15 l25 -7 -25 15 c-28 17 -50 21 -34
7z"/>
<path d="M13310 11030 c8 -5 20 -10 25 -10 6 0 3 5 -5 10 -8 5 -19 10 -25 10
-5 0 -3 -5 5 -10z"/>
<path d="M13350 11010 c0 -5 5 -10 11 -10 5 0 7 5 4 10 -3 6 -8 10 -11 10 -2
0 -4 -4 -4 -10z"/>
<path d="M13515 10990 c3 -5 11 -10 16 -10 6 0 7 5 4 10 -3 6 -11 10 -16 10
-6 0 -7 -4 -4 -10z"/>
<path d="M13462 10954 c9 -9 21 -15 27 -13 6 2 -2 10 -17 17 -25 11 -25 11
-10 -4z"/>
<path d="M13585 10960 c9 -15 75 -43 82 -36 3 3 -7 10 -23 16 -16 5 -37 15
-48 21 -13 8 -16 8 -11 -1z"/>
<path d="M13690 10911 c8 -5 29 -11 45 -14 l30 -6 -30 14 c-34 16 -72 21 -45
6z"/>
<path d="M13818 10873 c7 -3 16 -2 19 1 4 3 -2 6 -13 5 -11 0 -14 -3 -6 -6z"/>
<path d="M13883 10863 c15 -2 37 -2 50 0 12 2 0 4 -28 4 -27 0 -38 -2 -22 -4z"/>
<path d="M13688 10853 c7 -3 16 -2 19 1 4 3 -2 6 -13 5 -11 0 -14 -3 -6 -6z"/>
<path d="M13758 10833 c7 -3 16 -2 19 1 4 3 -2 6 -13 5 -11 0 -14 -3 -6 -6z"/>
<path d="M13833 10813 c9 -2 23 -2 30 0 6 3 -1 5 -18 5 -16 0 -22 -2 -12 -5z"/>
<path d="M8286 10291 c-4 -5 -2 -12 3 -15 5 -4 12 -2 15 3 4 5 2 12 -3 15 -5
4 -12 2 -15 -3z"/>
<path d="M18923 10232 c-8 -5 8 -18 43 -36 72 -38 139 -108 197 -205 87 -146
148 -385 133 -524 -5 -51 -4 -58 9 -47 43 36 43 175 0 345 -32 126 -71 212
-146 318 -75 106 -136 157 -188 157 -20 0 -41 -4 -48 -8z"/>
<path d="M9488 9753 c6 -2 18 -2 25 0 6 3 1 5 -13 5 -14 0 -19 -2 -12 -5z"/>
<path d="M9645 9750 c11 -5 27 -9 35 -9 9 0 8 4 -5 9 -11 5 -27 9 -35 9 -9 0
-8 -4 5 -9z"/>
<path d="M9960 9520 c20 -13 33 -13 25 0 -3 6 -14 10 -23 10 -15 0 -15 -2 -2
-10z"/>
<path d="M13920 8262 c-82 -36 -193 -100 -256 -149 -27 -21 -59 -45 -71 -53
-12 -8 -122 -89 -245 -179 -122 -91 -254 -187 -293 -215 -38 -28 -77 -57 -85
-63 -15 -13 -280 -209 -436 -323 -49 -36 -152 -106 -229 -157 -326 -215 -387
-267 -439 -376 -19 -40 -42 -97 -51 -127 -23 -76 -30 -264 -16 -472 6 -95 25
-393 41 -663 31 -501 42 -597 80 -697 44 -119 109 -189 470 -507 267 -236
1017 -895 1174 -1031 122 -106 240 -190 308 -221 82 -37 183 -34 268 8 86 42
196 124 355 264 72 63 389 341 705 619 679 595 810 721 863 830 20 41 43 109
51 151 13 64 81 1060 101 1474 7 147 -7 250 -48 334 -26 56 -26 55 23 93 19
14 49 39 66 55 17 15 62 53 99 83 132 107 147 120 137 120 -5 0 -15 -7 -22
-15 -7 -8 -19 -15 -26 -15 -8 0 -14 -4 -14 -9 0 -11 -116 -101 -124 -96 -3 3
-4 2 -1 -1 2 -4 -12 -19 -33 -35 -20 -16 -45 -37 -55 -46 -11 -10 -23 -17 -28
-15 -5 1 -9 -3 -9 -8 0 -6 -11 -16 -25 -22 -23 -10 -28 -8 -59 28 -40 47 -177
155 -416 329 -198 144 -189 144 -185 5 1 -47 -1 -150 -6 -230 -4 -80 -10 -215
-14 -300 -3 -95 -11 -170 -20 -195 -8 -22 -14 -47 -15 -56 -1 -43 -139 -455
-197 -589 -53 -121 -151 -320 -158 -320 -3 0 12 35 34 78 111 221 197 465 240
677 46 229 97 710 103 980 l3 109 -97 71 c-53 38 -256 187 -449 330 -551 407
-644 472 -742 520 -122 60 -171 65 -257 27z"/>
<path d="M17172 7900 c0 -14 2 -19 5 -12 2 6 2 18 0 25 -3 6 -5 1 -5 -13z"/>
<path d="M17171 7734 c0 -11 3 -14 6 -6 3 7 2 16 -1 19 -3 4 -6 -2 -5 -13z"/>
<path d="M11352 7184 c10 -10 20 -16 22 -13 3 3 -5 11 -17 18 -21 13 -21 12
-5 -5z"/>
<path d="M16548 7109 c-30 -29 -34 -35 -13 -21 31 20 73 62 62 62 -3 0 -25
-18 -49 -41z"/>
<path d="M11490 7076 c0 -2 7 -9 15 -16 9 -7 15 -8 15 -2 0 5 -7 12 -15 16 -8
3 -15 4 -15 2z"/>
<path d="M11595 6985 c22 -20 56 -48 75 -63 19 -15 49 -39 65 -54 34 -32 42
-34 42 -14 0 8 -6 12 -13 9 -6 -2 -18 4 -25 14 -8 10 -26 26 -41 36 -15 9 -50
37 -78 62 -28 25 -54 45 -58 45 -4 0 11 -16 33 -35z"/>
<path d="M11794 6829 c-8 -14 26 -38 55 -39 27 0 23 10 -6 15 -10 1 -17 7 -16
13 3 14 -25 23 -33 11z"/>
</g>
</svg>
